<svg xmlns="http://www.w3.org/2000/svg" xmlns:xlink="http://www.w3.org/1999/xlink" width="13" height="14" viewBox="0 0 13 14"><defs><style>.a{fill:#9b9b9b;}.b{fill:#f90;}.c{clip-path:url(#a);}</style><clipPath id="a"><rect class="a" width="7" height="14" transform="translate(92 646)"/></clipPath></defs><g transform="translate(-76 -632)"><g transform="translate(0 68)"><g transform="translate(60 -91)"><path class="b" d="M6,0,7.8,4.028l4.2.555L8.912,7.628,9.708,12,6,9.853,2.292,12l.8-4.372L0,4.584l4.2-.555Z" transform="translate(16 656)"/></g></g><g class="c" transform="translate(-10 -14)"><g transform="translate(10 82)"><g transform="translate(60 -91)"><path class="a" d="M6,0,7.8,4.028l4.2.555L8.912,7.628,9.708,12,6,9.853,2.292,12l.8-4.372L0,4.584l4.2-.555Z" transform="translate(16 656)"/></g></g></g></g></svg>