<svg width="35" height="31" viewBox="0 0 35 31" fill="none" xmlns="http://www.w3.org/2000/svg">
<path id="Vector" d="M28.6364 9.3V6.2H25.4545V3.1H28.6364V0H31.8182V3.1H35V6.2H31.8182V9.3H28.6364ZM3.18182 31C2.30682 31 1.55803 30.6967 0.935455 30.0901C0.311818 29.4825 0 28.7525 0 27.9V9.3C0 8.4475 0.311818 7.71797 0.935455 7.1114C1.55803 6.5038 2.30682 6.2 3.18182 6.2H8.19318L11.1364 3.1H20.6818V6.2H12.5284L9.625 9.3H3.18182V27.9H28.6364V13.95H31.8182V27.9C31.8182 28.7525 31.5069 29.4825 30.8843 30.0901C30.2607 30.6967 29.5114 31 28.6364 31H3.18182ZM15.9091 25.575C17.8977 25.575 19.5883 24.8971 20.9809 23.5414C22.3724 22.1846 23.0682 20.5375 23.0682 18.6C23.0682 16.6625 22.3724 15.0154 20.9809 13.6586C19.5883 12.3029 17.8977 11.625 15.9091 11.625C13.9205 11.625 12.2298 12.3029 10.8373 13.6586C9.44576 15.0154 8.75 16.6625 8.75 18.6C8.75 20.5375 9.44576 22.1846 10.8373 23.5414C12.2298 24.8971 13.9205 25.575 15.9091 25.575ZM15.9091 22.475C14.7955 22.475 13.8542 22.1004 13.0852 21.3512C12.3163 20.6021 11.9318 19.685 11.9318 18.6C11.9318 17.515 12.3163 16.5979 13.0852 15.8488C13.8542 15.0996 14.7955 14.725 15.9091 14.725C17.0227 14.725 17.964 15.0996 18.733 15.8488C19.5019 16.5979 19.8864 17.515 19.8864 18.6C19.8864 19.685 19.5019 20.6021 18.733 21.3512C17.964 22.1004 17.0227 22.475 15.9091 22.475Z" fill="#B2B2B2"/>
</svg>
