<svg width="30" height="32" viewBox="0 0 30 32" fill="none" xmlns="http://www.w3.org/2000/svg">
<rect x="0.5" y="0.5" width="29" height="31" rx="7.5" fill="white" stroke="#ECECF2"/>
<path d="M7.96875 11H9.53125H22.0312" stroke="#8181A5" stroke-width="2" stroke-linecap="round" stroke-linejoin="round"/>
<path d="M11.875 10.9998V9.33317C11.875 8.89114 12.0396 8.46722 12.3326 8.15466C12.6257 7.8421 13.0231 7.6665 13.4375 7.6665H16.5625C16.9769 7.6665 17.3743 7.8421 17.6674 8.15466C17.9604 8.46722 18.125 8.89114 18.125 9.33317V10.9998M20.4688 10.9998V22.6665C20.4688 23.1085 20.3041 23.5325 20.0111 23.845C19.7181 24.1576 19.3207 24.3332 18.9062 24.3332H11.0938C10.6793 24.3332 10.2819 24.1576 9.9889 23.845C9.69587 23.5325 9.53125 23.1085 9.53125 22.6665V10.9998H20.4688Z" stroke="#8181A5" stroke-width="1.5" stroke-linecap="round" stroke-linejoin="round"/>
<path d="M13.4375 15.1665V20.1665" stroke="#8181A5" stroke-width="1.5" stroke-linecap="round" stroke-linejoin="round"/>
<path d="M16.5625 15.1665V20.1665" stroke="#8181A5" stroke-width="1.5" stroke-linecap="round" stroke-linejoin="round"/>
</svg>
