<svg width="55" height="55" viewBox="0 0 55 55" fill="none" xmlns="http://www.w3.org/2000/svg">
<path d="M43.5391 18.334V13.7507H38.9557V9.16732H43.5391V4.58398H48.1224V9.16732H52.7057V13.7507H48.1224V18.334H43.5391ZM6.8724 50.4173C5.61198 50.4173 4.53337 49.9689 3.63656 49.0721C2.73823 48.1738 2.28906 47.0944 2.28906 45.834V18.334C2.28906 17.0736 2.73823 15.995 3.63656 15.0982C4.53337 14.1998 5.61198 13.7507 6.8724 13.7507H14.0911L18.3307 9.16732H32.0807V13.7507H20.3359L16.1536 18.334H6.8724V45.834H43.5391V25.209H48.1224V45.834C48.1224 47.0944 47.674 48.1738 46.7772 49.0721C45.8789 49.9689 44.7995 50.4173 43.5391 50.4173H6.8724ZM25.2057 42.3965C28.0703 42.3965 30.5056 41.3943 32.5116 39.3898C34.516 37.3838 35.5182 34.9486 35.5182 32.084C35.5182 29.2194 34.516 26.7841 32.5116 24.7782C30.5056 22.7737 28.0703 21.7715 25.2057 21.7715C22.3411 21.7715 19.9059 22.7737 17.8999 24.7782C15.8954 26.7841 14.8932 29.2194 14.8932 32.084C14.8932 34.9486 15.8954 37.3838 17.8999 39.3898C19.9059 41.3943 22.3411 42.3965 25.2057 42.3965ZM25.2057 37.8132C23.6016 37.8132 22.2457 37.2593 21.138 36.1517C20.0304 35.0441 19.4766 33.6882 19.4766 32.084C19.4766 30.4798 20.0304 29.1239 21.138 28.0163C22.2457 26.9086 23.6016 26.3548 25.2057 26.3548C26.8099 26.3548 28.1658 26.9086 29.2734 28.0163C30.3811 29.1239 30.9349 30.4798 30.9349 32.084C30.9349 33.6882 30.3811 35.0441 29.2734 36.1517C28.1658 37.2593 26.8099 37.8132 25.2057 37.8132Z" fill="#B2B2B2"/>
</svg>
