<svg xmlns="http://www.w3.org/2000/svg" width="253" height="221" viewBox="0 0 253 221" fill="none">
  <g style="mix-blend-mode:multiply" opacity="0.330985" filter="url(#filter0_f_1716_9501)">
    <path d="M126.482 200C150.495 200 169.96 198.054 169.96 195.653C169.96 193.251 150.495 191.305 126.482 191.305C102.47 191.305 83.0039 193.251 83.0039 195.653C83.0039 198.054 102.47 200 126.482 200Z" fill="url(#paint0_linear_1716_9501)" style="mix-blend-mode:multiply"/>
  </g>
  <g opacity="0.779367">
    <g opacity="0.598842" filter="url(#filter1_f_1716_9501)">
      <path d="M31.2556 134.704C34.0767 134.704 36.3636 134.009 36.3636 133.152C36.3636 132.295 34.0767 131.6 31.2556 131.6C28.4346 131.6 26.1477 132.295 26.1477 133.152C26.1477 134.009 28.4346 134.704 31.2556 134.704Z" fill="#85A0C7"/>
    </g>
    <path opacity="0.576521" fill-rule="evenodd" clip-rule="evenodd" d="M26.7681 133.127C28.2172 133.743 35.0026 123.05 35.9915 120.195C36.9803 117.339 35.9305 114.237 33.6467 113.265C31.3629 112.294 28.7098 113.821 27.721 116.676C26.7322 119.531 25.3191 132.51 26.7681 133.127Z" fill="url(#paint1_linear_1716_9501)"/>
    <path fill-rule="evenodd" clip-rule="evenodd" d="M27.0256 133.138C28.7873 132.627 28.5283 117.452 27.678 114.019C26.8277 110.587 23.8876 108.457 21.1111 109.262C18.3345 110.066 16.7729 113.501 17.6232 116.934C18.4735 120.366 25.2639 133.648 27.0256 133.138Z" fill="url(#paint2_linear_1716_9501)"/>
  </g>
  <path opacity="0.7" fill-rule="evenodd" clip-rule="evenodd" d="M18.5769 33.2016C18.2134 33.2016 17.8554 33.1782 17.5042 33.1329C17.0777 33.1785 16.6442 33.2016 16.2054 33.2016C9.43823 33.2016 3.95239 27.7157 3.95239 20.9486C3.95239 14.1815 9.43823 8.69565 16.2054 8.69565C16.9848 8.69565 17.7473 8.76843 18.4864 8.90758C21.2607 3.61293 26.8091 0 33.2014 0C42.3698 0 49.8022 7.43243 49.8022 16.6008H59.6836C64.2678 16.6008 67.984 20.317 67.984 24.9012C67.984 29.4854 64.2678 33.2016 59.6836 33.2016H18.5769Z" fill="url(#paint3_linear_1716_9501)"/>
  <path fill-rule="evenodd" clip-rule="evenodd" d="M0 171.543C13.7339 151.418 26.8478 141.355 39.3418 141.355C51.8358 141.355 66.1263 151.418 82.2134 171.543H0Z" fill="url(#paint4_linear_1716_9501)"/>
  <path fill-rule="evenodd" clip-rule="evenodd" d="M48.6956 171.542C63.1871 144.138 78.6955 130.436 95.2206 130.436C111.746 130.436 141.771 144.138 185.296 171.542H48.6956Z" fill="url(#paint5_linear_1716_9501)"/>
  <path fill-rule="evenodd" clip-rule="evenodd" d="M252.964 171.542C237.832 150.133 223.56 139.428 210.148 139.428C196.737 139.428 175.172 150.133 145.454 171.542H252.964Z" fill="url(#paint6_linear_1716_9501)"/>
  <g opacity="0.669852" filter="url(#filter2_f_1716_9501)">
    <path d="M205.567 113.043C207.731 113.043 209.485 112.482 209.485 111.789C209.485 111.097 207.731 110.535 205.567 110.535C203.403 110.535 201.649 111.097 201.649 111.789C201.649 112.482 203.403 113.043 205.567 113.043Z" fill="#85A0C7"/>
  </g>
  <path opacity="0.576521" fill-rule="evenodd" clip-rule="evenodd" d="M202.125 111.771C203.236 112.211 208.441 104.57 209.2 102.53C209.958 100.489 209.153 98.2726 207.401 97.5783C205.649 96.8839 203.614 97.975 202.856 100.015C202.097 102.056 201.013 111.33 202.125 111.771Z" fill="url(#paint7_linear_1716_9501)"/>
  <path fill-rule="evenodd" clip-rule="evenodd" d="M201.938 111.779C203.305 111.42 203.104 100.743 202.444 98.3282C201.785 95.9134 199.505 94.4147 197.351 94.9809C195.198 95.5471 193.986 97.9637 194.646 100.379C195.305 102.793 200.572 112.138 201.938 111.779Z" fill="url(#paint8_linear_1716_9501)"/>
  <g opacity="0.896856">
    <g opacity="0.596866" filter="url(#filter3_f_1716_9501)">
      <path d="M218.103 198.418C220.941 198.418 223.241 197.718 223.241 196.854C223.241 195.99 220.941 195.289 218.103 195.289C215.265 195.289 212.964 195.99 212.964 196.854C212.964 197.718 215.265 198.418 218.103 198.418Z" fill="#85A0C7"/>
    </g>
    <path opacity="0.576521" fill-rule="evenodd" clip-rule="evenodd" d="M214.403 197.136C216.287 197.882 225.108 184.948 226.394 181.495C227.679 178.041 226.314 174.289 223.345 173.114C220.376 171.938 216.927 173.785 215.642 177.239C214.356 180.692 212.519 196.39 214.403 197.136Z" fill="url(#paint9_linear_1716_9501)"/>
    <path fill-rule="evenodd" clip-rule="evenodd" d="M214.384 197.15C216.725 196.539 216.381 178.382 215.251 174.275C214.121 170.168 210.214 167.619 206.524 168.582C202.834 169.545 200.759 173.655 201.889 177.762C203.019 181.868 212.043 197.761 214.384 197.15Z" fill="url(#paint10_linear_1716_9501)"/>
  </g>
  <path d="M96.5527 108.418C93.766 108.418 91.5066 106.159 91.5066 103.372V59.2126C91.5066 40.0753 107.076 24.5059 126.214 24.5059C145.351 24.5059 160.921 40.0753 160.921 59.2126V67.8459C160.921 70.6326 158.662 72.8921 155.875 72.8921C153.088 72.8921 150.829 70.6326 150.829 67.8459V59.2126C150.829 45.6402 139.786 34.5981 126.214 34.5981C112.641 34.5981 101.599 45.6402 101.599 59.2126V103.372C101.599 106.159 99.3398 108.418 96.5527 108.418Z" fill="url(#paint11_linear_1716_9501)"/>
  <path d="M155.875 108.418C158.661 108.418 160.921 106.159 160.921 103.372V59.2126C160.921 40.0753 145.351 24.5059 126.213 24.5059C107.076 24.5059 91.5063 40.0753 91.5063 59.2126V67.8459C91.5063 70.6326 93.7657 72.8921 96.5524 72.8921C99.3391 72.8921 101.598 70.6326 101.598 67.8459V59.2126C101.598 45.6402 112.641 34.5981 126.213 34.5981C139.786 34.5981 150.828 45.6402 150.828 59.2126V103.372C150.828 106.159 153.087 108.418 155.875 108.418Z" fill="url(#paint12_linear_1716_9501)"/>
  <path d="M157.425 166.799H95.0023C85.3198 166.799 77.4705 158.949 77.4705 149.267V86.8443C77.4705 77.1618 85.3198 69.3125 95.0023 69.3125H157.425C167.107 69.3125 174.957 77.1618 174.957 86.8443V149.267C174.957 158.949 167.107 166.799 157.425 166.799Z" fill="url(#paint13_linear_1716_9501)"/>
  <path d="M77.4705 126.621V149.267C77.4705 158.949 85.3198 166.799 95.0023 166.799H157.425C167.107 166.799 174.957 158.949 174.957 149.267V126.621H77.4705Z" fill="url(#paint14_linear_1716_9501)"/>
  <path d="M126.008 146.166C120 146.057 115.112 141.002 115.112 134.899V127.852C108.697 123.744 105.101 116.534 105.697 108.887C106.481 98.8177 114.673 90.6947 124.751 89.9923C125.237 89.9588 125.729 89.9414 126.214 89.9414C137.561 89.9414 146.794 99.1738 146.794 110.522C146.794 117.515 143.181 124.086 137.315 127.852V135.067C137.315 138.033 136.16 140.82 134.064 142.917C131.967 145.014 129.179 146.168 126.214 146.168C126.214 146.168 126.008 146.166 126.008 146.166Z" fill="url(#paint15_linear_1716_9501)"/>
  <path d="M140.739 110.521C140.739 102.155 133.665 95.4406 125.172 96.0324C118.063 96.5282 112.288 102.251 111.734 109.357C111.284 115.131 114.213 120.262 118.752 122.985C120.239 123.876 121.167 125.465 121.167 127.198V134.899C121.167 137.677 123.341 140.06 126.118 140.111C128.949 140.163 131.259 137.885 131.259 135.066V127.198C131.259 125.498 132.13 123.897 133.594 123.032C137.87 120.505 140.739 115.849 140.739 110.521Z" fill="url(#paint16_linear_1716_9501)"/>
  <path d="M167.967 102.662H154.242C152.569 102.662 151.214 104.018 151.214 105.69C151.214 107.362 152.569 108.717 154.242 108.717H167.967C169.64 108.717 170.995 107.362 170.995 105.69C170.995 104.018 169.639 102.662 167.967 102.662Z" fill="url(#paint17_linear_1716_9501)"/>
  <path d="M167.967 115.027H154.242C152.569 115.027 151.214 116.383 151.214 118.055C151.214 119.727 152.569 121.083 154.242 121.083H167.967C169.639 121.083 170.995 119.727 170.995 118.055C170.995 116.383 169.639 115.027 167.967 115.027Z" fill="url(#paint18_linear_1716_9501)"/>
  <path d="M167.967 127.395H154.242C152.569 127.395 151.214 128.75 151.214 130.422C151.214 132.094 152.569 133.45 154.242 133.45H167.967C169.639 133.45 170.995 132.094 170.995 130.422C170.995 128.75 169.639 127.395 167.967 127.395Z" fill="url(#paint19_linear_1716_9501)"/>
  <path d="M98.1855 102.662H84.46C82.7876 102.662 81.4324 104.018 81.4324 105.69C81.4324 107.362 82.7876 108.717 84.46 108.717H98.1855C99.858 108.717 101.213 107.362 101.213 105.69C101.213 104.018 99.858 102.662 98.1855 102.662Z" fill="url(#paint20_linear_1716_9501)"/>
  <path d="M98.1855 115.027H84.46C82.7876 115.027 81.4324 116.383 81.4324 118.055C81.4324 119.727 82.7876 121.083 84.46 121.083H98.1855C99.858 121.083 101.213 119.727 101.213 118.055C101.213 116.383 99.858 115.027 98.1855 115.027Z" fill="url(#paint21_linear_1716_9501)"/>
  <path d="M98.1855 127.395H84.46C82.7876 127.395 81.4324 128.75 81.4324 130.422C81.4324 132.094 82.7876 133.45 84.46 133.45H98.1855C99.858 133.45 101.213 132.094 101.213 130.422C101.213 128.75 99.858 127.395 98.1855 127.395Z" fill="url(#paint22_linear_1716_9501)"/>
  <defs>
    <filter id="filter0_f_1716_9501" x="81.0039" y="189.305" width="90.9565" height="12.6953" filterUnits="userSpaceOnUse" color-interpolation-filters="sRGB">
      <feFlood flood-opacity="0" result="BackgroundImageFix"/>
      <feBlend mode="normal" in="SourceGraphic" in2="BackgroundImageFix" result="shape"/>
      <feGaussianBlur stdDeviation="1" result="effect1_foregroundBlur_1716_9501"/>
    </filter>
    <filter id="filter1_f_1716_9501" x="4.14771" y="109.6" width="54.2158" height="47.1055" filterUnits="userSpaceOnUse" color-interpolation-filters="sRGB">
      <feFlood flood-opacity="0" result="BackgroundImageFix"/>
      <feBlend mode="normal" in="SourceGraphic" in2="BackgroundImageFix" result="shape"/>
      <feGaussianBlur stdDeviation="11" result="effect1_foregroundBlur_1716_9501"/>
    </filter>
    <filter id="filter2_f_1716_9501" x="179.649" y="88.5352" width="51.8364" height="46.5078" filterUnits="userSpaceOnUse" color-interpolation-filters="sRGB">
      <feFlood flood-opacity="0" result="BackgroundImageFix"/>
      <feBlend mode="normal" in="SourceGraphic" in2="BackgroundImageFix" result="shape"/>
      <feGaussianBlur stdDeviation="11" result="effect1_foregroundBlur_1716_9501"/>
    </filter>
    <filter id="filter3_f_1716_9501" x="190.964" y="173.289" width="54.2766" height="47.1289" filterUnits="userSpaceOnUse" color-interpolation-filters="sRGB">
      <feFlood flood-opacity="0" result="BackgroundImageFix"/>
      <feBlend mode="normal" in="SourceGraphic" in2="BackgroundImageFix" result="shape"/>
      <feGaussianBlur stdDeviation="11" result="effect1_foregroundBlur_1716_9501"/>
    </filter>
    <linearGradient id="paint0_linear_1716_9501" x1="188.17" y1="195.653" x2="61.226" y2="195.653" gradientUnits="userSpaceOnUse">
      <stop stop-color="#B2CAF4" stop-opacity="0"/>
      <stop offset="1" stop-color="#81BAFF"/>
    </linearGradient>
    <linearGradient id="paint1_linear_1716_9501" x1="31.875" y1="114.931" x2="26.1695" y2="131.754" gradientUnits="userSpaceOnUse">
      <stop stop-color="#EDF5FF"/>
      <stop offset="1" stop-color="#A1B6CC"/>
    </linearGradient>
    <linearGradient id="paint2_linear_1716_9501" x1="22.3545" y1="110.917" x2="28.2234" y2="131.869" gradientUnits="userSpaceOnUse">
      <stop stop-color="#EEF4FF"/>
      <stop offset="1" stop-color="#A1B6CC"/>
    </linearGradient>
    <linearGradient id="paint3_linear_1716_9501" x1="30.9976" y1="33.2016" x2="30.9976" y2="-14.6578" gradientUnits="userSpaceOnUse">
      <stop stop-color="#F7F8F9"/>
      <stop offset="1" stop-color="#D5E4F8"/>
    </linearGradient>
    <linearGradient id="paint4_linear_1716_9501" x1="34.7248" y1="171.456" x2="34.7248" y2="142.218" gradientUnits="userSpaceOnUse">
      <stop stop-color="#F2F4F9" stop-opacity="0"/>
      <stop offset="1" stop-color="#E7EEFF"/>
    </linearGradient>
    <linearGradient id="paint5_linear_1716_9501" x1="106.392" y1="171.423" x2="106.392" y2="131.61" gradientUnits="userSpaceOnUse">
      <stop stop-color="#F2F4F9" stop-opacity="0"/>
      <stop offset="1" stop-color="#E7EEFF"/>
    </linearGradient>
    <linearGradient id="paint6_linear_1716_9501" x1="190.864" y1="171.542" x2="190.864" y2="139.428" gradientUnits="userSpaceOnUse">
      <stop offset="0.00290329" stop-color="#F2F4F9" stop-opacity="0"/>
      <stop offset="0.979756" stop-color="#EAF0FF"/>
    </linearGradient>
    <linearGradient id="paint7_linear_1716_9501" x1="206.115" y1="98.7689" x2="201.765" y2="110.715" gradientUnits="userSpaceOnUse">
      <stop stop-color="#EDF5FF"/>
      <stop offset="1" stop-color="#A1B6CC"/>
    </linearGradient>
    <linearGradient id="paint8_linear_1716_9501" x1="198.23" y1="96.1452" x2="202.746" y2="110.77" gradientUnits="userSpaceOnUse">
      <stop stop-color="#EEF4FF"/>
      <stop offset="1" stop-color="#A1B6CC"/>
    </linearGradient>
    <linearGradient id="paint9_linear_1716_9501" x1="221.167" y1="175.129" x2="213.797" y2="195.347" gradientUnits="userSpaceOnUse">
      <stop stop-color="#EDF5FF"/>
      <stop offset="1" stop-color="#A1B6CC"/>
    </linearGradient>
    <linearGradient id="paint10_linear_1716_9501" x1="208.018" y1="170.562" x2="215.751" y2="195.418" gradientUnits="userSpaceOnUse">
      <stop stop-color="#EEF4FF"/>
      <stop offset="1" stop-color="#A1B6CC"/>
    </linearGradient>
    <linearGradient id="paint11_linear_1716_9501" x1="92.6837" y1="41.6312" x2="117.66" y2="66.607" gradientUnits="userSpaceOnUse">
      <stop stop-color="#5A5A5A"/>
      <stop offset="1" stop-color="#444444"/>
    </linearGradient>
    <linearGradient id="paint12_linear_1716_9501" x1="159.743" y1="41.6312" x2="134.768" y2="66.607" gradientUnits="userSpaceOnUse">
      <stop stop-color="#C2D1E6"/>
      <stop offset="1" stop-color="#9BB1D0"/>
    </linearGradient>
    <linearGradient id="paint13_linear_1716_9501" x1="77.6853" y1="118.27" x2="174.742" y2="118.27" gradientUnits="userSpaceOnUse">
      <stop stop-color="#B3C7E2"/>
      <stop offset="1" stop-color="#D4E1F2"/>
    </linearGradient>
    <linearGradient id="paint14_linear_1716_9501" x1="126.214" y1="145.272" x2="126.214" y2="169.68" gradientUnits="userSpaceOnUse">
      <stop stop-color="white" stop-opacity="0"/>
      <stop offset="1" stop-color="#9BB1D0"/>
    </linearGradient>
    <linearGradient id="paint15_linear_1716_9501" x1="105.724" y1="118.179" x2="146.703" y2="118.179" gradientUnits="userSpaceOnUse">
      <stop stop-color="#F9FBFD"/>
      <stop offset="1" stop-color="#D4E1F2"/>
    </linearGradient>
    <linearGradient id="paint16_linear_1716_9501" x1="126.214" y1="95.9961" x2="126.214" y2="140.112" gradientUnits="userSpaceOnUse">
      <stop stop-color="#9BB1D0"/>
      <stop offset="1" stop-color="#DBE3EE"/>
    </linearGradient>
    <linearGradient id="paint17_linear_1716_9501" x1="151.258" y1="105.703" x2="170.951" y2="105.703" gradientUnits="userSpaceOnUse">
      <stop stop-color="#FEFEFF"/>
      <stop offset="1" stop-color="#D9E4F3"/>
    </linearGradient>
    <linearGradient id="paint18_linear_1716_9501" x1="151.257" y1="118.068" x2="170.951" y2="118.068" gradientUnits="userSpaceOnUse">
      <stop stop-color="#FEFEFF"/>
      <stop offset="1" stop-color="#D9E4F3"/>
    </linearGradient>
    <linearGradient id="paint19_linear_1716_9501" x1="151.257" y1="130.436" x2="170.951" y2="130.436" gradientUnits="userSpaceOnUse">
      <stop stop-color="#FEFEFF"/>
      <stop offset="1" stop-color="#D9E4F3"/>
    </linearGradient>
    <linearGradient id="paint20_linear_1716_9501" x1="81.476" y1="105.703" x2="101.17" y2="105.703" gradientUnits="userSpaceOnUse">
      <stop stop-color="#FEFEFF"/>
      <stop offset="1" stop-color="#D9E4F3"/>
    </linearGradient>
    <linearGradient id="paint21_linear_1716_9501" x1="81.476" y1="118.068" x2="101.17" y2="118.068" gradientUnits="userSpaceOnUse">
      <stop stop-color="#FEFEFF"/>
      <stop offset="1" stop-color="#D9E4F3"/>
    </linearGradient>
    <linearGradient id="paint22_linear_1716_9501" x1="81.476" y1="130.436" x2="101.17" y2="130.436" gradientUnits="userSpaceOnUse">
      <stop stop-color="#FEFEFF"/>
      <stop offset="1" stop-color="#D9E4F3"/>
    </linearGradient>
  </defs>
</svg>