<svg xmlns="http://www.w3.org/2000/svg" width="18" height="18" viewBox="0 0 18 18" fill="none">
  <path d="M9 0.5C4.31103 0.5 0.5 4.31103 0.5 9C0.5 13.689 4.31103 17.5 9 17.5C13.689 17.5 17.5 13.689 17.5 9C17.5 4.31103 13.689 0.5 9 0.5ZM9 16.642C4.78991 16.642 1.35798 13.2101 1.35798 9C1.35798 4.78991 4.78991 1.35798 9 1.35798C13.2101 1.35798 16.642 4.78991 16.642 9C16.642 13.2101 13.2101 16.642 9 16.642Z" fill="#8181A5" stroke="#8181A5" stroke-width="0.15"/>
  <path d="M9.71833 9.0122L12.6605 6.07001C12.8488 5.88171 12.8488 5.55218 12.6605 5.36388C12.4722 5.17558 12.1427 5.17558 11.9544 5.36388L9.0122 8.30608L6.07001 5.36388C5.88171 5.17558 5.55218 5.17558 5.36388 5.36388C5.17558 5.55218 5.17558 5.88171 5.36388 6.07001L8.30608 9.0122L5.36388 11.9309C5.17558 12.1192 5.17558 12.4487 5.36388 12.637C5.45803 12.7311 5.59926 12.7782 5.71694 12.7782C5.83463 12.7782 5.97586 12.7311 6.07001 12.637L9.0122 9.69479L11.9544 12.637C12.0485 12.7311 12.1898 12.7782 12.3075 12.7782C12.4251 12.7782 12.5664 12.7311 12.6605 12.637C12.8488 12.4487 12.8488 12.1192 12.6605 11.9309L9.71833 9.0122Z" fill="#8181A5" stroke="#8181A5" stroke-width="0.15"/>
</svg>