<svg width="56" height="56" viewBox="0 0 56 56" fill="none" xmlns="http://www.w3.org/2000/svg">
<rect x="0.5" y="0.5" width="55" height="55" rx="7.5" fill="white" fill-opacity="0.2" stroke="#F5A41F"/>
<path d="M28.1183 28.7629C28.1505 28.7629 28.1828 28.7629 28.2214 28.7629C28.2343 28.7629 28.2472 28.7629 28.2601 28.7629C28.2794 28.7629 28.3052 28.7629 28.3245 28.7629C30.2121 28.7307 31.7389 28.0672 32.8663 26.798C35.3466 24.0021 34.9343 19.209 34.8892 18.7516C34.7282 15.3178 33.1047 13.675 31.7647 12.9084C30.7661 12.335 29.6001 12.0258 28.2987 12H28.2536C28.2472 12 28.2343 12 28.2279 12H28.1892C27.4741 12 26.0697 12.116 24.7232 12.8826C23.3703 13.6492 21.7211 15.292 21.56 18.7516C21.515 19.209 21.1026 24.0021 23.5829 26.798C24.7039 28.0672 26.2307 28.7307 28.1183 28.7629ZM23.2801 18.9126C23.2801 18.8933 23.2866 18.874 23.2866 18.8611C23.4992 14.2419 26.7783 13.7459 28.1828 13.7459H28.2085C28.2214 13.7459 28.2407 13.7459 28.2601 13.7459C29.9995 13.7845 32.9565 14.4932 33.1562 18.8611C33.1562 18.8804 33.1562 18.8997 33.1627 18.9126C33.1691 18.9577 33.6201 23.3385 31.5714 25.6449C30.7597 26.5597 29.6774 27.0106 28.2536 27.0235C28.2407 27.0235 28.2343 27.0235 28.2214 27.0235C28.2085 27.0235 28.2021 27.0235 28.1892 27.0235C26.7719 27.0106 25.6831 26.5597 24.8778 25.6449C22.8356 23.3514 23.2737 18.9513 23.2801 18.9126Z" fill="#F5A41F"/>
<path d="M41.4604 36.7128C41.4604 36.7064 41.4604 36.6999 41.4604 36.6935C41.4604 36.642 41.454 36.5904 41.454 36.5324C41.4153 35.2569 41.3315 32.2741 38.5356 31.3206C38.5162 31.3142 38.4905 31.3077 38.4712 31.3013C35.5657 30.5604 33.1498 28.8854 33.124 28.8661C32.731 28.5891 32.1899 28.6857 31.9129 29.0787C31.6358 29.4717 31.7325 30.0128 32.1255 30.2898C32.235 30.3671 34.799 32.1517 38.0073 32.9763C39.5084 33.511 39.6759 35.1151 39.721 36.584C39.721 36.642 39.721 36.6935 39.7274 36.745C39.7338 37.3249 39.6952 38.2203 39.5921 38.7357C38.5485 39.3284 34.4576 41.3771 28.2343 41.3771C22.0368 41.3771 17.9201 39.322 16.87 38.7293C16.767 38.2139 16.7219 37.3184 16.7347 36.7386C16.7347 36.6871 16.7412 36.6355 16.7412 36.5775C16.7863 35.1087 16.9538 33.5045 18.4548 32.9698C21.6631 32.1452 24.2272 30.3543 24.3367 30.2834C24.7297 30.0064 24.8263 29.4652 24.5493 29.0722C24.2723 28.6792 23.7311 28.5826 23.3381 28.8596C23.3124 28.879 20.9094 30.554 17.991 31.2948C17.9652 31.3013 17.9459 31.3077 17.9266 31.3142C15.1306 32.2741 15.0468 35.2569 15.0082 36.526C15.0082 36.584 15.0082 36.6355 15.0018 36.6871C15.0018 36.6935 15.0018 36.6999 15.0018 36.7064C14.9953 37.0414 14.9889 38.7615 15.3303 39.6248C15.3947 39.7923 15.5107 39.934 15.6653 40.0306C15.8586 40.1595 20.4906 43.1101 28.2407 43.1101C35.9909 43.1101 40.6229 40.153 40.8162 40.0306C40.9643 39.934 41.0867 39.7923 41.1512 39.6248C41.4733 38.7679 41.4668 37.0478 41.4604 36.7128Z" fill="#F5A41F"/>
</svg>
