<svg width="375" height="145" viewBox="0 0 375 145" fill="none" xmlns="http://www.w3.org/2000/svg">
<rect width="375" height="94" fill="#1D2891"/>
<rect opacity="0.35" x="336.833" y="17.833" width="21" height="10.3333" rx="2.16667" stroke="white"/>
<path opacity="0.4" d="M359.333 21V25C360.138 24.6612 360.661 23.8731 360.661 23C360.661 22.1269 360.138 21.3388 359.333 21Z" fill="white"/>
<rect x="338.333" y="19.333" width="18" height="7.33333" rx="1.33333" fill="white"/>
<path fill-rule="evenodd" clip-rule="evenodd" d="M323.667 19.6155C325.892 19.6156 328.031 20.4697 329.644 22.0013C329.765 22.1196 329.959 22.1181 330.079 21.998L331.239 20.8277C331.3 20.7667 331.334 20.6842 331.333 20.5984C331.333 20.5125 331.298 20.4304 331.237 20.3702C327.005 16.318 320.329 16.318 316.097 20.3702C316.035 20.4304 316.001 20.5125 316 20.5983C315.999 20.6842 316.033 20.7667 316.094 20.8277L317.255 21.998C317.374 22.1183 317.568 22.1198 317.69 22.0013C319.302 20.4696 321.442 19.6155 323.667 19.6155ZM323.667 23.4231C324.889 23.423 326.068 23.877 326.974 24.6968C327.097 24.8131 327.29 24.8106 327.409 24.6911L328.569 23.5208C328.63 23.4594 328.663 23.3761 328.663 23.2896C328.662 23.203 328.626 23.1204 328.564 23.0603C325.805 20.4959 321.532 20.4959 318.773 23.0603C318.71 23.1204 318.675 23.2031 318.674 23.2896C318.673 23.3762 318.707 23.4595 318.768 23.5208L319.927 24.6911C320.047 24.8106 320.24 24.8131 320.362 24.6968C321.268 23.8775 322.446 23.4236 323.667 23.4231ZM325.989 25.985C325.991 26.0717 325.957 26.1554 325.895 26.2162L323.89 28.2382C323.831 28.2976 323.751 28.3311 323.667 28.3311C323.583 28.3311 323.503 28.2976 323.445 28.2382L321.439 26.2162C321.377 26.1553 321.343 26.0717 321.345 25.9849C321.347 25.8981 321.384 25.8159 321.449 25.7578C322.729 24.6755 324.605 24.6755 325.886 25.7578C325.95 25.816 325.988 25.8982 325.989 25.985Z" fill="white"/>
<path fill-rule="evenodd" clip-rule="evenodd" d="M310 17.667H309C308.448 17.667 308 18.1147 308 18.667V27.3337C308 27.8859 308.448 28.3337 309 28.3337H310C310.552 28.3337 311 27.8859 311 27.3337V18.667C311 18.1147 310.552 17.667 310 17.667ZM304.333 20.0003H305.333C305.886 20.0003 306.333 20.448 306.333 21.0003V27.3337C306.333 27.8859 305.886 28.3337 305.333 28.3337H304.333C303.781 28.3337 303.333 27.8859 303.333 27.3337V21.0003C303.333 20.448 303.781 20.0003 304.333 20.0003ZM300.667 22.3337H299.667C299.114 22.3337 298.667 22.7814 298.667 23.3337V27.3337C298.667 27.8859 299.114 28.3337 299.667 28.3337H300.667C301.219 28.3337 301.667 27.8859 301.667 27.3337V23.3337C301.667 22.7814 301.219 22.3337 300.667 22.3337ZM296 24.3337H295C294.448 24.3337 294 24.7814 294 25.3337V27.3337C294 27.8859 294.448 28.3337 295 28.3337H296C296.552 28.3337 297 27.8859 297 27.3337V25.3337C297 24.7814 296.552 24.3337 296 24.3337Z" fill="white"/>
<path d="M37.1341 28.2563C39.8221 28.2563 41.4187 26.1543 41.4187 22.5947C41.4187 21.2544 41.1624 20.1265 40.6717 19.2549C39.9612 17.8999 38.7381 17.1675 37.1927 17.1675C34.8929 17.1675 33.2669 18.7129 33.2669 20.8809C33.2669 22.917 34.7317 24.3965 36.7459 24.3965C37.9837 24.3965 38.9871 23.8179 39.4852 22.8145H39.5071C39.5071 22.8145 39.5364 22.8145 39.5437 22.8145C39.5584 22.8145 39.6097 22.8145 39.6097 22.8145C39.6097 25.2314 38.6941 26.6743 37.1487 26.6743C36.2405 26.6743 35.5374 26.1763 35.2957 25.3779H33.4134C33.7283 27.1138 35.2005 28.2563 37.1341 28.2563ZM37.2 22.895C35.9842 22.895 35.1199 22.0308 35.1199 20.8223C35.1199 19.6431 36.0281 18.7422 37.2073 18.7422C38.3865 18.7422 39.2947 19.6577 39.2947 20.8516C39.2947 22.0308 38.4085 22.895 37.2 22.895ZM44.4366 26.8794C45.1324 26.8794 45.6085 26.3813 45.6085 25.7222C45.6085 25.0557 45.1324 24.5649 44.4366 24.5649C43.7481 24.5649 43.2647 25.0557 43.2647 25.7222C43.2647 26.3813 43.7481 26.8794 44.4366 26.8794ZM44.4366 21.3862C45.1324 21.3862 45.6085 20.8955 45.6085 20.2363C45.6085 19.5698 45.1324 19.0791 44.4366 19.0791C43.7481 19.0791 43.2647 19.5698 43.2647 20.2363C43.2647 20.8955 43.7481 21.3862 44.4366 21.3862ZM52.6107 28H54.4198V26.0298H55.848V24.4331H54.4198V17.4312H51.7538C49.8861 20.2437 48.3993 22.5947 47.4472 24.3452V26.0298H52.6107V28ZM49.1977 24.3672C50.4281 22.1992 51.5268 20.4634 52.5375 18.9692H52.64V24.4771H49.1977V24.3672ZM59.8767 28H61.7663V17.4312H59.884L57.1228 19.3647V21.1812L59.7521 19.3354H59.8767V28Z" fill="white"/>
<path d="M151.598 75.144C151.226 75.144 150.938 75.042 150.734 74.838C150.542 74.622 150.446 74.328 150.446 73.956V64.236H146.936C146.624 64.236 146.378 64.152 146.198 63.984C146.03 63.804 145.946 63.564 145.946 63.264C145.946 62.952 146.03 62.718 146.198 62.562C146.378 62.394 146.624 62.31 146.936 62.31H156.26C156.572 62.31 156.812 62.394 156.98 62.562C157.16 62.718 157.25 62.952 157.25 63.264C157.25 63.564 157.16 63.804 156.98 63.984C156.812 64.152 156.572 64.236 156.26 64.236H152.75V73.956C152.75 74.328 152.654 74.622 152.462 74.838C152.27 75.042 151.982 75.144 151.598 75.144ZM160.45 75.144C160.09 75.144 159.814 75.048 159.622 74.856C159.43 74.652 159.334 74.364 159.334 73.992V63.3C159.334 62.928 159.43 62.646 159.622 62.454C159.814 62.262 160.09 62.166 160.45 62.166C160.81 62.166 161.086 62.262 161.278 62.454C161.482 62.646 161.584 62.928 161.584 63.3V67.962H161.332C161.596 67.326 162.004 66.846 162.556 66.522C163.12 66.186 163.756 66.018 164.464 66.018C165.172 66.018 165.754 66.15 166.21 66.414C166.666 66.678 167.008 67.08 167.236 67.62C167.464 68.148 167.578 68.82 167.578 69.636V73.992C167.578 74.364 167.482 74.652 167.29 74.856C167.098 75.048 166.822 75.144 166.462 75.144C166.102 75.144 165.82 75.048 165.616 74.856C165.424 74.652 165.328 74.364 165.328 73.992V69.744C165.328 69.06 165.196 68.562 164.932 68.25C164.68 67.938 164.284 67.782 163.744 67.782C163.084 67.782 162.556 67.992 162.16 68.412C161.776 68.82 161.584 69.366 161.584 70.05V73.992C161.584 74.76 161.206 75.144 160.45 75.144ZM173.877 75.18C172.965 75.18 172.173 74.994 171.501 74.622C170.829 74.25 170.307 73.722 169.935 73.038C169.563 72.342 169.377 71.526 169.377 70.59C169.377 69.882 169.479 69.252 169.683 68.7C169.899 68.136 170.205 67.656 170.601 67.26C170.997 66.852 171.471 66.546 172.023 66.342C172.575 66.126 173.193 66.018 173.877 66.018C174.789 66.018 175.581 66.204 176.253 66.576C176.925 66.948 177.447 67.476 177.819 68.16C178.191 68.844 178.377 69.654 178.377 70.59C178.377 71.298 178.269 71.934 178.053 72.498C177.849 73.062 177.549 73.548 177.153 73.956C176.757 74.352 176.283 74.658 175.731 74.874C175.179 75.078 174.561 75.18 173.877 75.18ZM173.877 73.47C174.321 73.47 174.711 73.362 175.047 73.146C175.383 72.93 175.641 72.612 175.821 72.192C176.013 71.76 176.109 71.226 176.109 70.59C176.109 69.63 175.905 68.916 175.497 68.448C175.089 67.968 174.549 67.728 173.877 67.728C173.433 67.728 173.043 67.836 172.707 68.052C172.371 68.256 172.107 68.574 171.915 69.006C171.735 69.426 171.645 69.954 171.645 70.59C171.645 71.538 171.849 72.258 172.257 72.75C172.665 73.23 173.205 73.47 173.877 73.47ZM176.433 64.254C176.541 64.446 176.565 64.62 176.505 64.776C176.445 64.932 176.343 65.052 176.199 65.136C176.055 65.208 175.899 65.232 175.731 65.208C175.575 65.184 175.443 65.088 175.335 64.92L173.877 62.652L172.419 64.92C172.311 65.088 172.173 65.184 172.005 65.208C171.849 65.232 171.699 65.208 171.555 65.136C171.411 65.052 171.309 64.932 171.249 64.776C171.189 64.62 171.213 64.446 171.321 64.254L172.617 61.878C172.761 61.602 172.935 61.398 173.139 61.266C173.355 61.134 173.601 61.068 173.877 61.068C174.153 61.068 174.399 61.134 174.615 61.266C174.831 61.398 175.011 61.602 175.155 61.878L176.433 64.254ZM181.35 75.144C180.99 75.144 180.714 75.048 180.522 74.856C180.33 74.652 180.234 74.364 180.234 73.992V67.188C180.234 66.816 180.33 66.534 180.522 66.342C180.714 66.15 180.984 66.054 181.332 66.054C181.68 66.054 181.95 66.15 182.142 66.342C182.334 66.534 182.43 66.816 182.43 67.188V68.412L182.232 67.962C182.496 67.326 182.904 66.846 183.456 66.522C184.02 66.186 184.656 66.018 185.364 66.018C186.072 66.018 186.654 66.15 187.11 66.414C187.566 66.678 187.908 67.08 188.136 67.62C188.364 68.148 188.478 68.82 188.478 69.636V73.992C188.478 74.364 188.382 74.652 188.19 74.856C187.998 75.048 187.722 75.144 187.362 75.144C187.002 75.144 186.72 75.048 186.516 74.856C186.324 74.652 186.228 74.364 186.228 73.992V69.744C186.228 69.06 186.096 68.562 185.832 68.25C185.58 67.938 185.184 67.782 184.644 67.782C183.984 67.782 183.456 67.992 183.06 68.412C182.676 68.82 182.484 69.366 182.484 70.05V73.992C182.484 74.76 182.106 75.144 181.35 75.144ZM194.868 78.42C194.22 78.42 193.59 78.36 192.978 78.24C192.378 78.12 191.832 77.934 191.34 77.682C191.112 77.562 190.956 77.418 190.872 77.25C190.8 77.082 190.776 76.908 190.8 76.728C190.836 76.56 190.908 76.41 191.016 76.278C191.136 76.146 191.28 76.056 191.448 76.008C191.616 75.96 191.79 75.984 191.97 76.08C192.498 76.344 192.996 76.512 193.464 76.584C193.944 76.668 194.352 76.71 194.688 76.71C195.492 76.71 196.092 76.512 196.488 76.116C196.896 75.732 197.1 75.156 197.1 74.388V72.768H197.262C197.082 73.38 196.704 73.872 196.128 74.244C195.564 74.604 194.922 74.784 194.202 74.784C193.41 74.784 192.72 74.604 192.132 74.244C191.544 73.872 191.088 73.356 190.764 72.696C190.44 72.036 190.278 71.268 190.278 70.392C190.278 69.732 190.368 69.138 190.548 68.61C190.74 68.07 191.004 67.608 191.34 67.224C191.688 66.84 192.102 66.546 192.582 66.342C193.074 66.126 193.614 66.018 194.202 66.018C194.946 66.018 195.594 66.204 196.146 66.576C196.71 66.936 197.076 67.416 197.244 68.016L197.064 68.466V67.188C197.064 66.816 197.16 66.534 197.352 66.342C197.556 66.15 197.832 66.054 198.18 66.054C198.54 66.054 198.816 66.15 199.008 66.342C199.2 66.534 199.296 66.816 199.296 67.188V74.118C199.296 75.546 198.918 76.62 198.162 77.34C197.406 78.06 196.308 78.42 194.868 78.42ZM194.814 73.074C195.282 73.074 195.684 72.966 196.02 72.75C196.356 72.534 196.614 72.228 196.794 71.832C196.986 71.424 197.082 70.944 197.082 70.392C197.082 69.564 196.878 68.916 196.47 68.448C196.062 67.968 195.51 67.728 194.814 67.728C194.346 67.728 193.944 67.836 193.608 68.052C193.272 68.268 193.008 68.574 192.816 68.97C192.636 69.366 192.546 69.84 192.546 70.392C192.546 71.22 192.75 71.874 193.158 72.354C193.566 72.834 194.118 73.074 194.814 73.074ZM211.59 75.18C210.846 75.18 210.192 74.994 209.628 74.622C209.076 74.25 208.71 73.752 208.53 73.128L208.728 72.678V73.992C208.728 74.364 208.632 74.652 208.44 74.856C208.248 75.048 207.978 75.144 207.63 75.144C207.27 75.144 206.994 75.048 206.802 74.856C206.61 74.652 206.514 74.364 206.514 73.992V63.3C206.514 62.928 206.61 62.646 206.802 62.454C206.994 62.262 207.27 62.166 207.63 62.166C207.99 62.166 208.266 62.262 208.458 62.454C208.662 62.646 208.764 62.928 208.764 63.3V67.98H208.548C208.74 67.392 209.112 66.918 209.664 66.558C210.216 66.198 210.858 66.018 211.59 66.018C212.37 66.018 213.048 66.204 213.624 66.576C214.2 66.948 214.65 67.476 214.974 68.16C215.298 68.832 215.46 69.642 215.46 70.59C215.46 71.526 215.298 72.342 214.974 73.038C214.65 73.722 214.194 74.25 213.606 74.622C213.03 74.994 212.358 75.18 211.59 75.18ZM210.96 73.47C211.404 73.47 211.794 73.362 212.13 73.146C212.466 72.93 212.724 72.612 212.904 72.192C213.096 71.76 213.192 71.226 213.192 70.59C213.192 69.63 212.988 68.916 212.58 68.448C212.172 67.968 211.632 67.728 210.96 67.728C210.516 67.728 210.126 67.836 209.79 68.052C209.454 68.256 209.19 68.574 208.998 69.006C208.818 69.426 208.728 69.954 208.728 70.59C208.728 71.538 208.932 72.258 209.34 72.75C209.748 73.23 210.288 73.47 210.96 73.47ZM220.205 75.18C219.569 75.18 218.999 75.06 218.495 74.82C218.003 74.568 217.613 74.232 217.325 73.812C217.049 73.392 216.911 72.918 216.911 72.39C216.911 71.742 217.079 71.232 217.415 70.86C217.751 70.476 218.297 70.2 219.053 70.032C219.809 69.864 220.823 69.78 222.095 69.78H222.995V71.076H222.113C221.369 71.076 220.775 71.112 220.331 71.184C219.887 71.256 219.569 71.382 219.377 71.562C219.197 71.73 219.107 71.97 219.107 72.282C219.107 72.678 219.245 73.002 219.521 73.254C219.797 73.506 220.181 73.632 220.673 73.632C221.069 73.632 221.417 73.542 221.717 73.362C222.029 73.17 222.275 72.912 222.455 72.588C222.635 72.264 222.725 71.892 222.725 71.472V69.402C222.725 68.802 222.593 68.37 222.329 68.106C222.065 67.842 221.621 67.71 220.997 67.71C220.649 67.71 220.271 67.752 219.863 67.836C219.467 67.92 219.047 68.064 218.603 68.268C218.375 68.376 218.171 68.406 217.991 68.358C217.823 68.31 217.691 68.214 217.595 68.07C217.499 67.914 217.451 67.746 217.451 67.566C217.451 67.386 217.499 67.212 217.595 67.044C217.691 66.864 217.853 66.732 218.081 66.648C218.633 66.42 219.161 66.258 219.665 66.162C220.181 66.066 220.649 66.018 221.069 66.018C221.933 66.018 222.641 66.15 223.193 66.414C223.757 66.678 224.177 67.08 224.453 67.62C224.729 68.148 224.867 68.832 224.867 69.672V73.992C224.867 74.364 224.777 74.652 224.597 74.856C224.417 75.048 224.159 75.144 223.823 75.144C223.487 75.144 223.223 75.048 223.031 74.856C222.851 74.652 222.761 74.364 222.761 73.992V73.128H222.905C222.821 73.548 222.653 73.914 222.401 74.226C222.161 74.526 221.855 74.76 221.483 74.928C221.111 75.096 220.685 75.18 220.205 75.18ZM222.005 64.92C221.885 65.088 221.741 65.184 221.573 65.208C221.405 65.232 221.243 65.202 221.087 65.118C220.931 65.034 220.817 64.914 220.745 64.758C220.685 64.602 220.703 64.428 220.799 64.236L222.167 61.554C222.275 61.326 222.419 61.182 222.599 61.122C222.779 61.05 222.965 61.038 223.157 61.086C223.349 61.134 223.511 61.224 223.643 61.356C223.787 61.488 223.871 61.65 223.895 61.842C223.931 62.022 223.883 62.208 223.751 62.4L222.005 64.92ZM231.164 75.18C230.252 75.18 229.46 74.994 228.788 74.622C228.116 74.25 227.594 73.722 227.222 73.038C226.85 72.342 226.664 71.526 226.664 70.59C226.664 69.882 226.766 69.252 226.97 68.7C227.186 68.136 227.492 67.656 227.888 67.26C228.284 66.852 228.758 66.546 229.31 66.342C229.862 66.126 230.48 66.018 231.164 66.018C232.076 66.018 232.868 66.204 233.54 66.576C234.212 66.948 234.734 67.476 235.106 68.16C235.478 68.844 235.664 69.654 235.664 70.59C235.664 71.298 235.556 71.934 235.34 72.498C235.136 73.062 234.836 73.548 234.44 73.956C234.044 74.352 233.57 74.658 233.018 74.874C232.466 75.078 231.848 75.18 231.164 75.18ZM231.164 73.47C231.608 73.47 231.998 73.362 232.334 73.146C232.67 72.93 232.928 72.612 233.108 72.192C233.3 71.76 233.396 71.226 233.396 70.59C233.396 69.63 233.192 68.916 232.784 68.448C232.376 67.968 231.836 67.728 231.164 67.728C230.72 67.728 230.33 67.836 229.994 68.052C229.658 68.256 229.394 68.574 229.202 69.006C229.022 69.426 228.932 69.954 228.932 70.59C228.932 71.538 229.136 72.258 229.544 72.75C229.952 73.23 230.492 73.47 231.164 73.47Z" fill="white"/>
<path fill-rule="evenodd" clip-rule="evenodd" d="M32.2987 77.6853C32.8137 78.1427 33.6021 78.096 34.0595 77.581C34.517 77.0659 34.4703 76.2776 33.9552 75.8202L25.1215 67.9745L34.0457 60.1871C34.5647 59.7341 34.6183 58.9462 34.1654 58.4272C33.7125 57.9082 32.9246 57.8546 32.4055 58.3075L22.4274 67.0147C22.1435 67.2625 21.9988 67.6105 22.0002 67.9599C21.9952 68.3099 22.1368 68.66 22.4191 68.9108L32.2987 77.6853Z" fill="white"/>
<path d="M375 106H0V145H375V106Z" fill="#F2F2F2"/>
<path d="M18.974 132.112C18.6847 132.112 18.4607 132.033 18.302 131.874C18.1527 131.706 18.078 131.477 18.078 131.188V122.928C18.078 122.629 18.1527 122.405 18.302 122.256C18.4607 122.097 18.6847 122.018 18.974 122.018C19.2633 122.018 19.4827 122.097 19.632 122.256C19.7907 122.405 19.87 122.629 19.87 122.928V126.498H19.898L23.916 122.466C24.0653 122.317 24.2147 122.205 24.364 122.13C24.5133 122.055 24.6813 122.018 24.868 122.018C25.1387 122.018 25.33 122.088 25.442 122.228C25.5633 122.368 25.61 122.531 25.582 122.718C25.5633 122.905 25.4747 123.077 25.316 123.236L21.228 127.282L21.242 126.47L25.512 130.81C25.708 130.997 25.8107 131.193 25.82 131.398C25.8293 131.603 25.764 131.776 25.624 131.916C25.4933 132.047 25.2973 132.112 25.036 132.112C24.812 132.112 24.63 132.065 24.49 131.972C24.3593 131.879 24.2053 131.743 24.028 131.566L19.898 127.436H19.87V131.188C19.87 131.477 19.7953 131.706 19.646 131.874C19.4967 132.033 19.2727 132.112 18.974 132.112ZM28.444 132.112C28.164 132.112 27.9493 132.037 27.8 131.888C27.6507 131.729 27.576 131.505 27.576 131.216V122.9C27.576 122.611 27.6507 122.391 27.8 122.242C27.9493 122.093 28.164 122.018 28.444 122.018C28.724 122.018 28.9387 122.093 29.088 122.242C29.2467 122.391 29.326 122.611 29.326 122.9V126.526H29.13C29.3353 126.031 29.6527 125.658 30.082 125.406C30.5207 125.145 31.0153 125.014 31.566 125.014C32.1167 125.014 32.5693 125.117 32.924 125.322C33.2787 125.527 33.5447 125.84 33.722 126.26C33.8993 126.671 33.988 127.193 33.988 127.828V131.216C33.988 131.505 33.9133 131.729 33.764 131.888C33.6147 132.037 33.4 132.112 33.12 132.112C32.84 132.112 32.6207 132.037 32.462 131.888C32.3127 131.729 32.238 131.505 32.238 131.216V127.912C32.238 127.38 32.1353 126.993 31.93 126.75C31.734 126.507 31.426 126.386 31.006 126.386C30.4927 126.386 30.082 126.549 29.774 126.876C29.4753 127.193 29.326 127.618 29.326 128.15V131.216C29.326 131.813 29.032 132.112 28.444 132.112ZM38.2435 132.14C37.6741 132.14 37.2028 132.037 36.8295 131.832C36.4561 131.617 36.1761 131.3 35.9895 130.88C35.8121 130.46 35.7235 129.937 35.7235 129.312V125.924C35.7235 125.625 35.7981 125.406 35.9475 125.266C36.0968 125.117 36.3115 125.042 36.5915 125.042C36.8715 125.042 37.0861 125.117 37.2355 125.266C37.3941 125.406 37.4735 125.625 37.4735 125.924V129.34C37.4735 129.825 37.5715 130.185 37.7675 130.418C37.9635 130.651 38.2761 130.768 38.7055 130.768C39.1721 130.768 39.5548 130.609 39.8535 130.292C40.1521 129.965 40.3015 129.536 40.3015 129.004V125.924C40.3015 125.625 40.3761 125.406 40.5255 125.266C40.6748 125.117 40.8895 125.042 41.1695 125.042C41.4495 125.042 41.6641 125.117 41.8135 125.266C41.9721 125.406 42.0515 125.625 42.0515 125.924V131.216C42.0515 131.813 41.7668 132.112 41.1975 132.112C40.9268 132.112 40.7168 132.037 40.5675 131.888C40.4181 131.729 40.3435 131.505 40.3435 131.216V130.152L40.5395 130.572C40.3435 131.076 40.0448 131.463 39.6435 131.734C39.2515 132.005 38.7848 132.14 38.2435 132.14ZM45.6089 134.632C45.4036 134.632 45.2356 134.576 45.1049 134.464C44.9742 134.361 44.8949 134.221 44.8669 134.044C44.8482 133.867 44.8809 133.68 44.9649 133.484L45.9169 131.37V132.098L43.3689 126.204C43.2849 125.999 43.2569 125.807 43.2849 125.63C43.3129 125.453 43.3969 125.313 43.5369 125.21C43.6862 125.098 43.8869 125.042 44.1389 125.042C44.3536 125.042 44.5262 125.093 44.6569 125.196C44.7876 125.289 44.9042 125.471 45.0069 125.742L46.8969 130.46H46.4769L48.4089 125.728C48.5116 125.467 48.6329 125.289 48.7729 125.196C48.9129 125.093 49.0996 125.042 49.3329 125.042C49.5382 125.042 49.7016 125.098 49.8229 125.21C49.9442 125.313 50.0189 125.453 50.0469 125.63C50.0749 125.798 50.0422 125.985 49.9489 126.19L46.5469 133.96C46.4256 134.221 46.2949 134.399 46.1549 134.492C46.0149 134.585 45.8329 134.632 45.6089 134.632ZM54.4793 132.14C53.7046 132.14 53.0373 131.995 52.4773 131.706C51.9173 131.417 51.4833 131.006 51.1753 130.474C50.8766 129.942 50.7273 129.312 50.7273 128.584C50.7273 127.875 50.872 127.254 51.1613 126.722C51.46 126.19 51.866 125.775 52.3793 125.476C52.902 125.168 53.4946 125.014 54.1573 125.014C54.6426 125.014 55.0766 125.093 55.4593 125.252C55.8513 125.411 56.1826 125.639 56.4533 125.938C56.7333 126.237 56.9433 126.601 57.0833 127.03C57.2326 127.45 57.3073 127.926 57.3073 128.458C57.3073 128.626 57.2466 128.757 57.1253 128.85C57.0133 128.934 56.85 128.976 56.6353 128.976H52.1413V127.968H56.0753L55.8513 128.178C55.8513 127.749 55.786 127.389 55.6553 127.1C55.534 126.811 55.352 126.591 55.1093 126.442C54.876 126.283 54.582 126.204 54.2273 126.204C53.8353 126.204 53.4993 126.297 53.2193 126.484C52.9486 126.661 52.7386 126.918 52.5893 127.254C52.4493 127.581 52.3793 127.973 52.3793 128.43V128.528C52.3793 129.293 52.5566 129.867 52.9113 130.25C53.2753 130.623 53.8073 130.81 54.5073 130.81C54.75 130.81 55.0206 130.782 55.3193 130.726C55.6273 130.661 55.9166 130.553 56.1873 130.404C56.3833 130.292 56.556 130.245 56.7053 130.264C56.8546 130.273 56.9713 130.325 57.0553 130.418C57.1486 130.511 57.2046 130.628 57.2233 130.768C57.242 130.899 57.214 131.034 57.1393 131.174C57.074 131.314 56.9573 131.435 56.7893 131.538C56.4626 131.743 56.0846 131.897 55.6553 132C55.2353 132.093 54.8433 132.14 54.4793 132.14ZM53.0373 124.188C52.9253 124.309 52.804 124.379 52.6733 124.398C52.552 124.417 52.44 124.393 52.3373 124.328C52.244 124.263 52.1833 124.174 52.1553 124.062C52.1273 123.941 52.16 123.81 52.2533 123.67L53.1633 122.312C53.3033 122.107 53.4526 121.967 53.6113 121.892C53.7793 121.808 53.966 121.766 54.1713 121.766C54.3113 121.766 54.442 121.785 54.5633 121.822C54.6846 121.85 54.7966 121.906 54.8993 121.99C55.002 122.065 55.0953 122.172 55.1793 122.312L56.0893 123.67C56.1826 123.81 56.2153 123.941 56.1873 124.062C56.1686 124.174 56.1126 124.263 56.0193 124.328C55.926 124.393 55.814 124.417 55.6833 124.398C55.5526 124.379 55.4313 124.309 55.3193 124.188L54.1713 122.914L53.0373 124.188ZM56.6213 122.844C56.5373 122.956 56.4393 123.021 56.3273 123.04C56.2153 123.049 56.1126 123.026 56.0193 122.97C55.9353 122.914 55.8793 122.835 55.8513 122.732C55.8233 122.62 55.8466 122.494 55.9213 122.354L56.7893 120.814C56.8733 120.665 56.976 120.571 57.0973 120.534C57.2186 120.487 57.34 120.483 57.4613 120.52C57.5826 120.548 57.6806 120.609 57.7553 120.702C57.8393 120.786 57.886 120.893 57.8953 121.024C57.9046 121.145 57.858 121.271 57.7553 121.402L56.6213 122.844ZM59.5612 132.112C59.2812 132.112 59.0665 132.037 58.9172 131.888C58.7679 131.729 58.6932 131.505 58.6932 131.216V125.924C58.6932 125.635 58.7679 125.415 58.9172 125.266C59.0665 125.117 59.2765 125.042 59.5472 125.042C59.8179 125.042 60.0279 125.117 60.1772 125.266C60.3265 125.415 60.4012 125.635 60.4012 125.924V126.876L60.2472 126.526C60.4525 126.031 60.7699 125.658 61.1992 125.406C61.6379 125.145 62.1325 125.014 62.6832 125.014C63.2339 125.014 63.6865 125.117 64.0412 125.322C64.3959 125.527 64.6619 125.84 64.8392 126.26C65.0165 126.671 65.1052 127.193 65.1052 127.828V131.216C65.1052 131.505 65.0305 131.729 64.8812 131.888C64.7319 132.037 64.5172 132.112 64.2372 132.112C63.9572 132.112 63.7379 132.037 63.5792 131.888C63.4299 131.729 63.3552 131.505 63.3552 131.216V127.912C63.3552 127.38 63.2525 126.993 63.0472 126.75C62.8512 126.507 62.5432 126.386 62.1232 126.386C61.6099 126.386 61.1992 126.549 60.8912 126.876C60.5925 127.193 60.4432 127.618 60.4432 128.15V131.216C60.4432 131.813 60.1492 132.112 59.5612 132.112ZM71.5794 132.112C71.2994 132.112 71.0848 132.037 70.9354 131.888C70.7861 131.729 70.7114 131.505 70.7114 131.216V125.924C70.7114 125.635 70.7861 125.415 70.9354 125.266C71.0848 125.117 71.2948 125.042 71.5654 125.042C71.8361 125.042 72.0461 125.117 72.1954 125.266C72.3448 125.415 72.4194 125.635 72.4194 125.924V126.946L72.2654 126.526C72.4521 126.059 72.7414 125.691 73.1334 125.42C73.5254 125.149 73.9921 125.014 74.5334 125.014C75.0841 125.014 75.5368 125.145 75.8914 125.406C76.2461 125.667 76.4934 126.069 76.6334 126.61H76.4374C76.6241 126.115 76.9321 125.728 77.3614 125.448C77.7908 125.159 78.2854 125.014 78.8454 125.014C79.3681 125.014 79.7974 125.117 80.1334 125.322C80.4788 125.527 80.7354 125.84 80.9034 126.26C81.0714 126.671 81.1554 127.193 81.1554 127.828V131.216C81.1554 131.505 81.0761 131.729 80.9174 131.888C80.7681 132.037 80.5534 132.112 80.2734 132.112C79.9934 132.112 79.7788 132.037 79.6294 131.888C79.4801 131.729 79.4054 131.505 79.4054 131.216V127.898C79.4054 127.375 79.3168 126.993 79.1394 126.75C78.9714 126.507 78.6821 126.386 78.2714 126.386C77.8141 126.386 77.4548 126.549 77.1934 126.876C76.9321 127.193 76.8014 127.637 76.8014 128.206V131.216C76.8014 131.505 76.7268 131.729 76.5774 131.888C76.4281 132.037 76.2134 132.112 75.9334 132.112C75.6534 132.112 75.4341 132.037 75.2754 131.888C75.1261 131.729 75.0514 131.505 75.0514 131.216V127.898C75.0514 127.375 74.9628 126.993 74.7854 126.75C74.6174 126.507 74.3328 126.386 73.9314 126.386C73.4741 126.386 73.1148 126.549 72.8534 126.876C72.5921 127.193 72.4614 127.637 72.4614 128.206V131.216C72.4614 131.813 72.1674 132.112 71.5794 132.112ZM85.2148 132.14C84.7201 132.14 84.2768 132.047 83.8848 131.86C83.5021 131.664 83.1988 131.403 82.9748 131.076C82.7601 130.749 82.6528 130.381 82.6528 129.97C82.6528 129.466 82.7834 129.069 83.0448 128.78C83.3061 128.481 83.7308 128.267 84.3188 128.136C84.9068 128.005 85.6954 127.94 86.6848 127.94H87.3848V128.948H86.6988C86.1201 128.948 85.6581 128.976 85.3128 129.032C84.9674 129.088 84.7201 129.186 84.5708 129.326C84.4308 129.457 84.3608 129.643 84.3608 129.886C84.3608 130.194 84.4681 130.446 84.6828 130.642C84.8974 130.838 85.1961 130.936 85.5788 130.936C85.8868 130.936 86.1574 130.866 86.3908 130.726C86.6334 130.577 86.8248 130.376 86.9648 130.124C87.1048 129.872 87.1748 129.583 87.1748 129.256V127.646C87.1748 127.179 87.0721 126.843 86.8668 126.638C86.6614 126.433 86.3161 126.33 85.8308 126.33C85.5601 126.33 85.2661 126.363 84.9488 126.428C84.6408 126.493 84.3141 126.605 83.9688 126.764C83.7914 126.848 83.6328 126.871 83.4928 126.834C83.3621 126.797 83.2594 126.722 83.1848 126.61C83.1101 126.489 83.0728 126.358 83.0728 126.218C83.0728 126.078 83.1101 125.943 83.1848 125.812C83.2594 125.672 83.3854 125.569 83.5628 125.504C83.9921 125.327 84.4028 125.201 84.7948 125.126C85.1961 125.051 85.5601 125.014 85.8868 125.014C86.5588 125.014 87.1094 125.117 87.5388 125.322C87.9774 125.527 88.3041 125.84 88.5188 126.26C88.7334 126.671 88.8408 127.203 88.8408 127.856V131.216C88.8408 131.505 88.7708 131.729 88.6308 131.888C88.4908 132.037 88.2901 132.112 88.0288 132.112C87.7674 132.112 87.5621 132.037 87.4128 131.888C87.2728 131.729 87.2028 131.505 87.2028 131.216V130.544H87.3148C87.2494 130.871 87.1188 131.155 86.9228 131.398C86.7361 131.631 86.4981 131.813 86.2088 131.944C85.9194 132.075 85.5881 132.14 85.2148 132.14ZM83.6748 123.866C83.5348 123.857 83.4274 123.81 83.3528 123.726C83.2781 123.642 83.2594 123.511 83.2968 123.334C83.3341 123.138 83.3901 122.947 83.4648 122.76C83.5488 122.564 83.6561 122.387 83.7868 122.228C83.9174 122.069 84.0761 121.943 84.2628 121.85C84.4494 121.747 84.6688 121.696 84.9208 121.696C85.1541 121.696 85.3594 121.743 85.5368 121.836C85.7141 121.929 85.8774 122.037 86.0268 122.158C86.1761 122.279 86.3254 122.387 86.4748 122.48C86.6241 122.573 86.7874 122.62 86.9648 122.62C87.1608 122.62 87.3288 122.555 87.4688 122.424C87.6181 122.284 87.7114 122.111 87.7488 121.906C87.7674 121.803 87.8141 121.724 87.8888 121.668C87.9728 121.612 88.0894 121.589 88.2388 121.598C88.3788 121.607 88.4861 121.654 88.5608 121.738C88.6354 121.822 88.6541 121.953 88.6168 122.13C88.5701 122.382 88.4814 122.634 88.3508 122.886C88.2201 123.138 88.0428 123.348 87.8188 123.516C87.6041 123.684 87.3288 123.768 86.9928 123.768C86.7594 123.768 86.5541 123.721 86.3768 123.628C86.1994 123.535 86.0314 123.427 85.8728 123.306C85.7234 123.185 85.5741 123.077 85.4248 122.984C85.2754 122.891 85.1168 122.844 84.9488 122.844C84.7528 122.844 84.5848 122.909 84.4448 123.04C84.3048 123.171 84.2114 123.343 84.1648 123.558C84.1461 123.661 84.0948 123.74 84.0108 123.796C83.9361 123.852 83.8241 123.875 83.6748 123.866ZM91.485 132.098C91.205 132.098 90.9904 132.014 90.841 131.846C90.6917 131.678 90.617 131.445 90.617 131.146V126.008C90.617 125.7 90.6917 125.467 90.841 125.308C90.9904 125.14 91.205 125.056 91.485 125.056C91.765 125.056 91.9797 125.14 92.129 125.308C92.2877 125.467 92.367 125.7 92.367 126.008V131.146C92.367 131.445 92.2924 131.678 92.143 131.846C91.9937 132.014 91.7744 132.098 91.485 132.098ZM91.485 123.754C91.1584 123.754 90.9017 123.675 90.715 123.516C90.5377 123.348 90.449 123.119 90.449 122.83C90.449 122.531 90.5377 122.303 90.715 122.144C90.9017 121.985 91.1584 121.906 91.485 121.906C91.821 121.906 92.0777 121.985 92.255 122.144C92.4324 122.303 92.521 122.531 92.521 122.83C92.521 123.119 92.4324 123.348 92.255 123.516C92.0777 123.675 91.821 123.754 91.485 123.754Z" fill="#1D2891"/>
</svg>
