<svg width="56" height="56" viewBox="0 0 56 56" fill="none" xmlns="http://www.w3.org/2000/svg">
<rect x="0.5" y="0.5" width="55" height="55" rx="7.5" fill="white" fill-opacity="0.2" stroke="#7729DB"/>
<path d="M44.6031 23.6773C44.1512 23.1103 43.4732 22.7851 42.7429 22.7851H36.1522L32.5783 14.6016C32.3567 14.0943 31.7657 13.8624 31.2583 14.0841C30.7508 14.3057 30.5191 14.8967 30.7407 15.4042L33.9641 22.7852H22.0359L25.2593 15.4042C25.4809 14.8967 25.2492 14.3057 24.7418 14.0841C24.2344 13.8624 23.6433 14.0941 23.4217 14.6016L19.8479 22.7852H13.2571C12.5268 22.7852 11.8489 23.1103 11.397 23.6774C10.9534 24.234 10.7897 24.9496 10.9479 25.6409L14.4675 41.0141C14.7133 42.0876 15.6629 42.8372 16.7767 42.8372H39.2233C40.3372 42.8372 41.2868 42.0876 41.5326 41.0141L45.0522 25.6408C45.2104 24.9495 45.0467 24.2339 44.6031 23.6773ZM39.2233 40.832H16.7767C16.6065 40.832 16.4574 40.7203 16.4222 40.5665L12.9025 25.1934C12.8749 25.0727 12.9213 24.9819 12.9651 24.9271C13.0058 24.876 13.0978 24.7904 13.2571 24.7904H18.9722L18.7096 25.3917C18.488 25.8992 18.7197 26.4902 19.2271 26.7118C19.3577 26.7689 19.4938 26.7959 19.6278 26.7959C20.0143 26.7959 20.3826 26.5711 20.5471 26.1944L21.1603 24.7905H34.8399L35.4531 26.1944C35.6176 26.5712 35.9859 26.7959 36.3724 26.7959C36.5063 26.7959 36.6425 26.7689 36.7731 26.7118C37.2805 26.4903 37.5123 25.8992 37.2906 25.3917L37.028 24.7904H42.7431C42.9024 24.7904 42.9944 24.876 43.0351 24.9271C43.0789 24.982 43.1252 25.0728 43.0976 25.1933L39.578 40.5665C39.5427 40.7204 39.3936 40.832 39.2233 40.832Z" fill="#7729DB"/>
<path d="M21.9845 29.1362C21.4308 29.1362 20.9819 29.5851 20.9819 30.1388V37.4913C20.9819 38.045 21.4308 38.4939 21.9845 38.4939C22.5382 38.4939 22.9871 38.045 22.9871 37.4913V30.1388C22.9871 29.5851 22.5383 29.1362 21.9845 29.1362Z" fill="#7729DB"/>
<path d="M28.0002 29.1362C27.4465 29.1362 26.9976 29.5851 26.9976 30.1388V37.4913C26.9976 38.045 27.4465 38.4939 28.0002 38.4939C28.5539 38.4939 29.0028 38.045 29.0028 37.4913V30.1388C29.0028 29.5851 28.5539 29.1362 28.0002 29.1362Z" fill="#7729DB"/>
<path d="M34.0158 29.1362C33.4621 29.1362 33.0132 29.5851 33.0132 30.1388V37.4913C33.0132 38.045 33.4621 38.4939 34.0158 38.4939C34.5695 38.4939 35.0184 38.045 35.0184 37.4913V30.1388C35.0183 29.5851 34.5695 29.1362 34.0158 29.1362Z" fill="#7729DB"/>
</svg>
