<svg width="56" height="56" viewBox="0 0 56 56" fill="none" xmlns="http://www.w3.org/2000/svg">
<g id="Group 5676209">
<rect id="Rectangle 8343" x="0.5" y="0.5" width="55" height="55" rx="7.5" fill="white" fill-opacity="0.2" stroke="#0544B8"/>
<g id="Group">
<g id="Group_2">
<path id="Vector" d="M28.0004 43.554C23.8453 43.554 19.939 41.936 17.0009 38.9979C14.0628 36.0598 12.4448 32.1535 12.4448 27.9984C12.4448 23.8434 14.0629 19.9371 17.0009 16.9989C19.9389 14.0608 23.8453 12.4429 28.0004 12.4429C32.1554 12.4429 36.0618 14.0609 38.9999 16.9989C41.9379 19.937 43.5559 23.8434 43.5559 27.9984C43.5559 32.1535 41.9379 36.0598 38.9999 38.9979C36.0619 41.936 32.1554 43.554 28.0004 43.554ZM28.0004 14.3873C20.4952 14.3873 14.3893 20.4932 14.3893 27.9984C14.3893 35.5036 20.4952 41.6095 28.0004 41.6095C35.5056 41.6095 41.6115 35.5036 41.6115 27.9984C41.6115 20.4932 35.5056 14.3873 28.0004 14.3873Z" fill="#0544B8"/>
<path id="Vector_2" d="M28.0005 27.0264C26.6603 27.0264 25.5699 25.936 25.5699 24.5958C25.5699 23.2556 26.6603 22.1653 28.0005 22.1653C29.3407 22.1653 30.431 23.2556 30.431 24.5958C30.431 25.1327 30.8663 25.568 31.4033 25.568C31.9402 25.568 32.3755 25.1327 32.3755 24.5958C32.3755 22.5176 30.9185 20.7745 28.9727 20.331V19.2486C28.9727 18.7117 28.5375 18.2764 28.0005 18.2764C27.4635 18.2764 27.0283 18.7117 27.0283 19.2486V20.331C25.0825 20.7745 23.6255 22.5176 23.6255 24.5958C23.6255 27.0082 25.5881 28.9708 28.0005 28.9708C29.3407 28.9708 30.431 30.0612 30.431 31.4014C30.431 32.7416 29.3407 33.8319 28.0005 33.8319C26.6603 33.8319 25.5699 32.7416 25.5699 31.4014C25.5699 30.8645 25.1347 30.4291 24.5977 30.4291C24.0607 30.4291 23.6255 30.8645 23.6255 31.4014C23.6255 33.4796 25.0825 35.2227 27.0283 35.6661V36.7486C27.0283 37.2855 27.4635 37.7208 28.0005 37.7208C28.5375 37.7208 28.9727 37.2855 28.9727 36.7486V35.6661C30.9185 35.2227 32.3755 33.4796 32.3755 31.4014C32.3755 28.989 30.4129 27.0264 28.0005 27.0264Z" fill="#0544B8"/>
</g>
</g>
</g>
</svg>
