<svg width="56" height="56" viewBox="0 0 56 56" fill="none" xmlns="http://www.w3.org/2000/svg">
<g id="Group 5676215">
<rect id="Rectangle 8343" x="0.5" y="0.5" width="55" height="55" rx="7.5" fill="white" fill-opacity="0.2" stroke="#33B44A"/>
<g id="Group">
<g id="dollar-receive-circle">
<mask id="path-2-inside-1_478_5026" fill="white">
<path d="M41.5107 23.6127C41.3708 23.6413 41.2379 23.697 41.1196 23.7769C41.0014 23.8568 40.9 23.9592 40.8212 24.0783C40.7425 24.1974 40.6881 24.3308 40.6609 24.4709C40.6338 24.611 40.6345 24.7551 40.6631 24.895C41.2165 27.6051 40.918 30.42 39.8084 32.9537C38.6988 35.4874 36.8326 37.6157 34.4656 39.0469C32.0986 40.478 29.3469 41.1418 26.5877 40.9472C23.8286 40.7527 21.1972 39.7092 19.0545 37.9601C16.9118 36.2109 15.3627 33.8417 14.6197 31.1774C13.8766 28.5131 13.9761 25.6841 14.9044 23.0785C15.8327 20.473 17.5443 18.2184 19.8046 16.624C22.0649 15.0297 24.763 14.1736 27.529 14.1733C28.8923 14.172 30.2478 14.3797 31.5482 14.7891C31.8212 14.8698 32.1149 14.8401 32.3663 14.7065C32.6176 14.5728 32.8065 14.3459 32.8923 14.0745C32.9781 13.8031 32.9539 13.5088 32.8251 13.255C32.6962 13.0012 32.4729 12.8081 32.2031 12.7172C28.9485 11.6972 25.4489 11.7755 22.2431 12.9398C19.0373 14.1041 16.3032 16.2899 14.4617 19.1608C12.6202 22.0316 11.7735 25.4281 12.0519 28.8274C12.3304 32.2267 13.7185 35.4402 16.0026 37.9731C18.2868 40.5059 21.3402 42.2177 24.6927 42.8448C28.0452 43.4719 31.5109 42.9796 34.5561 41.4436C37.6014 39.9076 40.0572 37.4132 41.5456 34.3444C43.0339 31.2756 43.4722 27.8027 42.7929 24.4603C42.735 24.1781 42.5675 23.9303 42.3271 23.7714C42.0867 23.6125 41.7931 23.5554 41.5107 23.6127ZM27.4971 35.9065C27.7853 35.9065 28.0617 35.792 28.2655 35.5882C28.4693 35.3844 28.5838 35.108 28.5838 34.8198V34.2403C29.454 34.1149 30.2536 33.691 30.8458 33.0411C31.4379 32.3913 31.7859 31.5558 31.83 30.6777C31.8742 29.7997 31.6118 28.9335 31.0879 28.2275C30.5639 27.5215 29.8109 27.0196 28.9576 26.8075L26.6278 26.228C26.2721 26.139 25.957 25.9322 25.7339 25.6412C25.5126 25.3579 25.3937 25.0081 25.3963 24.6487C25.3978 24.2184 25.5697 23.8063 25.8744 23.5024C26.179 23.1986 26.5916 23.0278 27.0219 23.0274H28.0361C28.4366 23.0281 28.8227 23.1762 29.1209 23.4434C29.4192 23.7107 29.6086 24.0783 29.6531 24.4763C29.6649 24.6212 29.7058 24.7623 29.7732 24.8912C29.8406 25.0201 29.9332 25.1341 30.0455 25.2265C30.1578 25.319 30.2874 25.3879 30.4269 25.4293C30.5663 25.4707 30.7126 25.4837 30.8571 25.4675C31.0017 25.4513 31.1415 25.4062 31.2683 25.335C31.3951 25.2638 31.5063 25.1678 31.5953 25.0528C31.6844 24.9378 31.7494 24.8061 31.7866 24.6655C31.8238 24.5249 31.8324 24.3783 31.8119 24.2343C31.7188 23.3998 31.3512 22.6199 30.767 22.0168C30.1828 21.4136 29.4149 21.0215 28.5838 20.9019V20.331C28.5838 20.0428 28.4693 19.7664 28.2655 19.5627C28.0617 19.3589 27.7853 19.2444 27.4971 19.2444C27.2089 19.2444 26.9326 19.3589 26.7288 19.5627C26.525 19.7664 26.4105 20.0428 26.4105 20.331V20.9106C25.5486 21.0508 24.7615 21.4841 24.182 22.1374C23.6025 22.7906 23.2662 23.6238 23.2297 24.4962C23.1933 25.3687 23.459 26.227 23.982 26.9263C24.505 27.6256 25.2532 28.123 26.1004 28.3346L28.4302 28.9142C28.8148 29.011 29.1508 29.245 29.375 29.5721C29.5992 29.8992 29.6962 30.297 29.6478 30.6906C29.5994 31.0842 29.4089 31.4466 29.1121 31.7097C28.8153 31.9727 28.4327 32.1183 28.0361 32.1191H27.0219C26.6215 32.1184 26.2353 31.9703 25.9371 31.7031C25.6389 31.4358 25.4495 31.0682 25.405 30.6702C25.3931 30.5253 25.3522 30.3842 25.2848 30.2553C25.2174 30.1264 25.1249 30.0124 25.0126 29.92C24.9003 29.8275 24.7706 29.7586 24.6312 29.7172C24.4917 29.6758 24.3454 29.6628 24.2009 29.679C24.0564 29.6952 23.9166 29.7403 23.7898 29.8115C23.663 29.8827 23.5517 29.9787 23.4627 30.0937C23.3737 30.2087 23.3086 30.3404 23.2714 30.481C23.2342 30.6216 23.2256 30.7682 23.2461 30.9122C23.3374 31.7365 23.6962 32.5082 24.2677 33.1092C24.8392 33.7103 25.5918 34.1075 26.4105 34.2403V34.8198C26.4105 35.108 26.525 35.3844 26.7288 35.5882C26.9326 35.792 27.2089 35.9065 27.4971 35.9065ZM38.3521 21.0989C38.5561 21.3021 38.8322 21.4161 39.12 21.4161C39.4079 21.4161 39.684 21.3021 39.8879 21.0989L42.7857 18.2012C42.9776 17.9952 43.0821 17.7227 43.0772 17.4412C43.0722 17.1597 42.9582 16.8911 42.7591 16.692C42.56 16.4929 42.2914 16.3789 42.0098 16.3739C41.7283 16.3689 41.4559 16.4734 41.2499 16.6654L40.2067 17.7071V13.0867C40.2067 12.7985 40.0922 12.5221 39.8884 12.3183C39.6846 12.1145 39.4082 12 39.12 12C38.8318 12 38.5554 12.1145 38.3516 12.3183C38.1479 12.5221 38.0334 12.7985 38.0334 13.0867V17.7071L36.9902 16.6654C36.7842 16.4734 36.5117 16.3689 36.2302 16.3739C35.9487 16.3789 35.6801 16.4929 35.481 16.692C35.2819 16.8911 35.1679 17.1597 35.1629 17.4412C35.1579 17.7227 35.2624 17.9952 35.4544 18.2012L38.3521 21.0989Z"/>
</mask>
<path d="M41.5107 23.6127C41.3708 23.6413 41.2379 23.697 41.1196 23.7769C41.0014 23.8568 40.9 23.9592 40.8212 24.0783C40.7425 24.1974 40.6881 24.3308 40.6609 24.4709C40.6338 24.611 40.6345 24.7551 40.6631 24.895C41.2165 27.6051 40.918 30.42 39.8084 32.9537C38.6988 35.4874 36.8326 37.6157 34.4656 39.0469C32.0986 40.478 29.3469 41.1418 26.5877 40.9472C23.8286 40.7527 21.1972 39.7092 19.0545 37.9601C16.9118 36.2109 15.3627 33.8417 14.6197 31.1774C13.8766 28.5131 13.9761 25.6841 14.9044 23.0785C15.8327 20.473 17.5443 18.2184 19.8046 16.624C22.0649 15.0297 24.763 14.1736 27.529 14.1733C28.8923 14.172 30.2478 14.3797 31.5482 14.7891C31.8212 14.8698 32.1149 14.8401 32.3663 14.7065C32.6176 14.5728 32.8065 14.3459 32.8923 14.0745C32.9781 13.8031 32.9539 13.5088 32.8251 13.255C32.6962 13.0012 32.4729 12.8081 32.2031 12.7172C28.9485 11.6972 25.4489 11.7755 22.2431 12.9398C19.0373 14.1041 16.3032 16.2899 14.4617 19.1608C12.6202 22.0316 11.7735 25.4281 12.0519 28.8274C12.3304 32.2267 13.7185 35.4402 16.0026 37.9731C18.2868 40.5059 21.3402 42.2177 24.6927 42.8448C28.0452 43.4719 31.5109 42.9796 34.5561 41.4436C37.6014 39.9076 40.0572 37.4132 41.5456 34.3444C43.0339 31.2756 43.4722 27.8027 42.7929 24.4603C42.735 24.1781 42.5675 23.9303 42.3271 23.7714C42.0867 23.6125 41.7931 23.5554 41.5107 23.6127ZM27.4971 35.9065C27.7853 35.9065 28.0617 35.792 28.2655 35.5882C28.4693 35.3844 28.5838 35.108 28.5838 34.8198V34.2403C29.454 34.1149 30.2536 33.691 30.8458 33.0411C31.4379 32.3913 31.7859 31.5558 31.83 30.6777C31.8742 29.7997 31.6118 28.9335 31.0879 28.2275C30.5639 27.5215 29.8109 27.0196 28.9576 26.8075L26.6278 26.228C26.2721 26.139 25.957 25.9322 25.7339 25.6412C25.5126 25.3579 25.3937 25.0081 25.3963 24.6487C25.3978 24.2184 25.5697 23.8063 25.8744 23.5024C26.179 23.1986 26.5916 23.0278 27.0219 23.0274H28.0361C28.4366 23.0281 28.8227 23.1762 29.1209 23.4434C29.4192 23.7107 29.6086 24.0783 29.6531 24.4763C29.6649 24.6212 29.7058 24.7623 29.7732 24.8912C29.8406 25.0201 29.9332 25.1341 30.0455 25.2265C30.1578 25.319 30.2874 25.3879 30.4269 25.4293C30.5663 25.4707 30.7126 25.4837 30.8571 25.4675C31.0017 25.4513 31.1415 25.4062 31.2683 25.335C31.3951 25.2638 31.5063 25.1678 31.5953 25.0528C31.6844 24.9378 31.7494 24.8061 31.7866 24.6655C31.8238 24.5249 31.8324 24.3783 31.8119 24.2343C31.7188 23.3998 31.3512 22.6199 30.767 22.0168C30.1828 21.4136 29.4149 21.0215 28.5838 20.9019V20.331C28.5838 20.0428 28.4693 19.7664 28.2655 19.5627C28.0617 19.3589 27.7853 19.2444 27.4971 19.2444C27.2089 19.2444 26.9326 19.3589 26.7288 19.5627C26.525 19.7664 26.4105 20.0428 26.4105 20.331V20.9106C25.5486 21.0508 24.7615 21.4841 24.182 22.1374C23.6025 22.7906 23.2662 23.6238 23.2297 24.4962C23.1933 25.3687 23.459 26.227 23.982 26.9263C24.505 27.6256 25.2532 28.123 26.1004 28.3346L28.4302 28.9142C28.8148 29.011 29.1508 29.245 29.375 29.5721C29.5992 29.8992 29.6962 30.297 29.6478 30.6906C29.5994 31.0842 29.4089 31.4466 29.1121 31.7097C28.8153 31.9727 28.4327 32.1183 28.0361 32.1191H27.0219C26.6215 32.1184 26.2353 31.9703 25.9371 31.7031C25.6389 31.4358 25.4495 31.0682 25.405 30.6702C25.3931 30.5253 25.3522 30.3842 25.2848 30.2553C25.2174 30.1264 25.1249 30.0124 25.0126 29.92C24.9003 29.8275 24.7706 29.7586 24.6312 29.7172C24.4917 29.6758 24.3454 29.6628 24.2009 29.679C24.0564 29.6952 23.9166 29.7403 23.7898 29.8115C23.663 29.8827 23.5517 29.9787 23.4627 30.0937C23.3737 30.2087 23.3086 30.3404 23.2714 30.481C23.2342 30.6216 23.2256 30.7682 23.2461 30.9122C23.3374 31.7365 23.6962 32.5082 24.2677 33.1092C24.8392 33.7103 25.5918 34.1075 26.4105 34.2403V34.8198C26.4105 35.108 26.525 35.3844 26.7288 35.5882C26.9326 35.792 27.2089 35.9065 27.4971 35.9065ZM38.3521 21.0989C38.5561 21.3021 38.8322 21.4161 39.12 21.4161C39.4079 21.4161 39.684 21.3021 39.8879 21.0989L42.7857 18.2012C42.9776 17.9952 43.0821 17.7227 43.0772 17.4412C43.0722 17.1597 42.9582 16.8911 42.7591 16.692C42.56 16.4929 42.2914 16.3789 42.0098 16.3739C41.7283 16.3689 41.4559 16.4734 41.2499 16.6654L40.2067 17.7071V13.0867C40.2067 12.7985 40.0922 12.5221 39.8884 12.3183C39.6846 12.1145 39.4082 12 39.12 12C38.8318 12 38.5554 12.1145 38.3516 12.3183C38.1479 12.5221 38.0334 12.7985 38.0334 13.0867V17.7071L36.9902 16.6654C36.7842 16.4734 36.5117 16.3689 36.2302 16.3739C35.9487 16.3789 35.6801 16.4929 35.481 16.692C35.2819 16.8911 35.1679 17.1597 35.1629 17.4412C35.1579 17.7227 35.2624 17.9952 35.4544 18.2012L38.3521 21.0989Z" fill="#33B44A" stroke="#EFF9F1" stroke-width="0.5" mask="url(#path-2-inside-1_478_5026)"/>
</g>
</g>
</g>
</svg>
