<svg width="56" height="56" viewBox="0 0 56 56" fill="none" xmlns="http://www.w3.org/2000/svg">
<rect x="0.5" y="0.5" width="55" height="55" rx="7.5" fill="white" fill-opacity="0.2" stroke="#FF0000"/>
<mask id="path-2-inside-1_478_5009" fill="white">
<path d="M41.5121 23.6118C41.3723 23.6403 41.2394 23.6961 41.1211 23.776C41.0028 23.8558 40.9014 23.9582 40.8227 24.0773C40.744 24.1964 40.6895 24.3298 40.6623 24.47C40.6352 24.6101 40.6359 24.7542 40.6645 24.8941C41.218 27.6043 40.9194 30.4193 39.8098 32.9532C38.7002 35.487 36.8338 37.6155 34.4667 39.0467C32.0996 40.4779 29.3477 41.1417 26.5884 40.9471C23.8292 40.7525 21.1976 39.7091 19.0548 37.9598C16.912 36.2106 15.3628 33.8413 14.6198 31.1768C13.8767 28.5123 13.9762 25.6832 14.9045 23.0775C15.8329 20.4718 17.5446 18.2171 19.805 16.6227C22.0654 15.0283 24.7637 14.1722 27.5298 14.1719C28.8932 14.1706 30.2487 14.3782 31.5492 14.7877C31.8222 14.8683 32.1159 14.8387 32.3673 14.705C32.6187 14.5714 32.8075 14.3445 32.8933 14.073C32.9791 13.8016 32.955 13.5073 32.8261 13.2535C32.6972 12.9997 32.4739 12.8066 32.2041 12.7157C28.9494 11.6957 25.4495 11.7739 22.2436 12.9383C19.0377 14.1026 16.3034 16.2886 14.4618 19.1596C12.6202 22.0305 11.7735 25.4272 12.0519 28.8267C12.3304 32.2261 13.7186 35.4398 16.0028 37.9728C18.2871 40.5058 21.3406 42.2177 24.6933 42.8448C28.046 43.472 31.5119 42.9796 34.5573 41.4435C37.6026 39.9075 40.0586 37.4129 41.5471 34.344C43.0355 31.275 43.4738 27.8019 42.7945 24.4594C42.766 24.3195 42.7102 24.1867 42.6303 24.0684C42.5504 23.9501 42.448 23.8487 42.3289 23.7699C42.2098 23.6912 42.0764 23.6367 41.9363 23.6096C41.7961 23.5825 41.652 23.5832 41.5121 23.6118ZM36.9914 16.751L38.0347 15.7092V20.3299C38.0347 20.6181 38.1492 20.8945 38.353 21.0983C38.5568 21.3021 38.8332 21.4166 39.1214 21.4166C39.4096 21.4166 39.686 21.3021 39.8898 21.0983C40.0936 20.8945 40.2081 20.6181 40.2081 20.3299V15.7092L41.2513 16.751C41.4573 16.943 41.7298 17.0475 42.0113 17.0425C42.2929 17.0375 42.5615 16.9235 42.7606 16.7244C42.9597 16.5253 43.0737 16.2567 43.0787 15.9751C43.0837 15.6936 42.9792 15.4211 42.7872 15.2151L39.8893 12.3172C39.6854 12.1141 39.4092 12 39.1214 12C38.8335 12 38.5574 12.1141 38.3534 12.3172L35.4555 15.2151C35.2636 15.4211 35.1591 15.6936 35.1641 15.9751C35.169 16.2567 35.2831 16.5253 35.4822 16.7244C35.6813 16.9235 35.9499 17.0375 36.2314 17.0425C36.513 17.0475 36.7854 16.943 36.9914 16.751ZM27.4979 35.9061C27.7861 35.9061 28.0625 35.7916 28.2663 35.5878C28.4701 35.384 28.5846 35.1076 28.5846 34.8194V34.2398C29.4549 34.1144 30.2545 33.6905 30.8467 33.0406C31.4389 32.3907 31.7869 31.5553 31.831 30.6771C31.8752 29.799 31.6128 28.9328 31.0888 28.2268C30.5648 27.5208 29.8117 27.0188 28.9585 26.8067L26.6285 26.2271C26.2728 26.1381 25.9577 25.9313 25.7345 25.6403C25.5133 25.357 25.3943 25.0072 25.3969 24.6478C25.3985 24.2175 25.5704 23.8053 25.8751 23.5014C26.1797 23.1976 26.5924 23.0268 27.0227 23.0264H28.0369C28.4374 23.0271 28.8236 23.1752 29.1218 23.4425C29.42 23.7097 29.6095 24.0774 29.654 24.4753C29.6658 24.6203 29.7067 24.7614 29.7741 24.8903C29.8415 25.0192 29.9341 25.1332 30.0464 25.2256C30.1587 25.3181 30.2884 25.387 30.4278 25.4284C30.5672 25.4698 30.7135 25.4828 30.8581 25.4666C31.0026 25.4504 31.1424 25.4053 31.2692 25.3341C31.3961 25.2629 31.5073 25.1669 31.5963 25.0519C31.6854 24.9369 31.7504 24.8052 31.7876 24.6646C31.8248 24.524 31.8334 24.3774 31.8129 24.2334C31.7197 23.3988 31.3522 22.6188 30.768 22.0157C30.1837 21.4126 29.4158 21.0204 28.5846 20.9008V20.3299C28.5846 20.0417 28.4701 19.7653 28.2663 19.5615C28.0625 19.3577 27.7861 19.2432 27.4979 19.2432C27.2097 19.2432 26.9333 19.3577 26.7295 19.5615C26.5257 19.7653 26.4112 20.0417 26.4112 20.3299V20.9095C25.5493 21.0497 24.7621 21.483 24.1826 22.1363C23.6031 22.7896 23.2667 23.6228 23.2303 24.4953C23.1939 25.3678 23.4596 26.2262 23.9826 26.9255C24.5056 27.6248 25.2539 28.1223 26.1011 28.3339L28.431 28.9135C28.8156 29.0103 29.1516 29.2443 29.3758 29.5714C29.6001 29.8986 29.6971 30.2963 29.6487 30.69C29.6003 31.0836 29.4098 31.446 29.113 31.7091C28.8162 31.9722 28.4335 32.1178 28.0369 32.1185H27.0227C26.6222 32.1178 26.236 31.9697 25.9378 31.7025C25.6396 31.4352 25.4501 31.0676 25.4056 30.6696C25.3938 30.5246 25.3529 30.3835 25.2855 30.2547C25.2181 30.1258 25.1255 30.0117 25.0132 29.9193C24.9009 29.8269 24.7712 29.7579 24.6318 29.7165C24.4924 29.6751 24.346 29.6622 24.2015 29.6784C24.057 29.6946 23.9172 29.7396 23.7903 29.8108C23.6635 29.8821 23.5523 29.978 23.4633 30.093C23.3742 30.208 23.3092 30.3397 23.272 30.4803C23.2348 30.6209 23.2262 30.7676 23.2467 30.9116C23.338 31.7359 23.6968 32.5077 24.2683 33.1087C24.8398 33.7098 25.5925 34.1071 26.4112 34.2398V34.8194C26.4112 35.1076 26.5257 35.384 26.7295 35.5878C26.9333 35.7916 27.2097 35.9061 27.4979 35.9061Z"/>
</mask>
<path d="M41.5121 23.6118C41.3723 23.6403 41.2394 23.6961 41.1211 23.776C41.0028 23.8558 40.9014 23.9582 40.8227 24.0773C40.744 24.1964 40.6895 24.3298 40.6623 24.47C40.6352 24.6101 40.6359 24.7542 40.6645 24.8941C41.218 27.6043 40.9194 30.4193 39.8098 32.9532C38.7002 35.487 36.8338 37.6155 34.4667 39.0467C32.0996 40.4779 29.3477 41.1417 26.5884 40.9471C23.8292 40.7525 21.1976 39.7091 19.0548 37.9598C16.912 36.2106 15.3628 33.8413 14.6198 31.1768C13.8767 28.5123 13.9762 25.6832 14.9045 23.0775C15.8329 20.4718 17.5446 18.2171 19.805 16.6227C22.0654 15.0283 24.7637 14.1722 27.5298 14.1719C28.8932 14.1706 30.2487 14.3782 31.5492 14.7877C31.8222 14.8683 32.1159 14.8387 32.3673 14.705C32.6187 14.5714 32.8075 14.3445 32.8933 14.073C32.9791 13.8016 32.955 13.5073 32.8261 13.2535C32.6972 12.9997 32.4739 12.8066 32.2041 12.7157C28.9494 11.6957 25.4495 11.7739 22.2436 12.9383C19.0377 14.1026 16.3034 16.2886 14.4618 19.1596C12.6202 22.0305 11.7735 25.4272 12.0519 28.8267C12.3304 32.2261 13.7186 35.4398 16.0028 37.9728C18.2871 40.5058 21.3406 42.2177 24.6933 42.8448C28.046 43.472 31.5119 42.9796 34.5573 41.4435C37.6026 39.9075 40.0586 37.4129 41.5471 34.344C43.0355 31.275 43.4738 27.8019 42.7945 24.4594C42.766 24.3195 42.7102 24.1867 42.6303 24.0684C42.5504 23.9501 42.448 23.8487 42.3289 23.7699C42.2098 23.6912 42.0764 23.6367 41.9363 23.6096C41.7961 23.5825 41.652 23.5832 41.5121 23.6118ZM36.9914 16.751L38.0347 15.7092V20.3299C38.0347 20.6181 38.1492 20.8945 38.353 21.0983C38.5568 21.3021 38.8332 21.4166 39.1214 21.4166C39.4096 21.4166 39.686 21.3021 39.8898 21.0983C40.0936 20.8945 40.2081 20.6181 40.2081 20.3299V15.7092L41.2513 16.751C41.4573 16.943 41.7298 17.0475 42.0113 17.0425C42.2929 17.0375 42.5615 16.9235 42.7606 16.7244C42.9597 16.5253 43.0737 16.2567 43.0787 15.9751C43.0837 15.6936 42.9792 15.4211 42.7872 15.2151L39.8893 12.3172C39.6854 12.1141 39.4092 12 39.1214 12C38.8335 12 38.5574 12.1141 38.3534 12.3172L35.4555 15.2151C35.2636 15.4211 35.1591 15.6936 35.1641 15.9751C35.169 16.2567 35.2831 16.5253 35.4822 16.7244C35.6813 16.9235 35.9499 17.0375 36.2314 17.0425C36.513 17.0475 36.7854 16.943 36.9914 16.751ZM27.4979 35.9061C27.7861 35.9061 28.0625 35.7916 28.2663 35.5878C28.4701 35.384 28.5846 35.1076 28.5846 34.8194V34.2398C29.4549 34.1144 30.2545 33.6905 30.8467 33.0406C31.4389 32.3907 31.7869 31.5553 31.831 30.6771C31.8752 29.799 31.6128 28.9328 31.0888 28.2268C30.5648 27.5208 29.8117 27.0188 28.9585 26.8067L26.6285 26.2271C26.2728 26.1381 25.9577 25.9313 25.7345 25.6403C25.5133 25.357 25.3943 25.0072 25.3969 24.6478C25.3985 24.2175 25.5704 23.8053 25.8751 23.5014C26.1797 23.1976 26.5924 23.0268 27.0227 23.0264H28.0369C28.4374 23.0271 28.8236 23.1752 29.1218 23.4425C29.42 23.7097 29.6095 24.0774 29.654 24.4753C29.6658 24.6203 29.7067 24.7614 29.7741 24.8903C29.8415 25.0192 29.9341 25.1332 30.0464 25.2256C30.1587 25.3181 30.2884 25.387 30.4278 25.4284C30.5672 25.4698 30.7135 25.4828 30.8581 25.4666C31.0026 25.4504 31.1424 25.4053 31.2692 25.3341C31.3961 25.2629 31.5073 25.1669 31.5963 25.0519C31.6854 24.9369 31.7504 24.8052 31.7876 24.6646C31.8248 24.524 31.8334 24.3774 31.8129 24.2334C31.7197 23.3988 31.3522 22.6188 30.768 22.0157C30.1837 21.4126 29.4158 21.0204 28.5846 20.9008V20.3299C28.5846 20.0417 28.4701 19.7653 28.2663 19.5615C28.0625 19.3577 27.7861 19.2432 27.4979 19.2432C27.2097 19.2432 26.9333 19.3577 26.7295 19.5615C26.5257 19.7653 26.4112 20.0417 26.4112 20.3299V20.9095C25.5493 21.0497 24.7621 21.483 24.1826 22.1363C23.6031 22.7896 23.2667 23.6228 23.2303 24.4953C23.1939 25.3678 23.4596 26.2262 23.9826 26.9255C24.5056 27.6248 25.2539 28.1223 26.1011 28.3339L28.431 28.9135C28.8156 29.0103 29.1516 29.2443 29.3758 29.5714C29.6001 29.8986 29.6971 30.2963 29.6487 30.69C29.6003 31.0836 29.4098 31.446 29.113 31.7091C28.8162 31.9722 28.4335 32.1178 28.0369 32.1185H27.0227C26.6222 32.1178 26.236 31.9697 25.9378 31.7025C25.6396 31.4352 25.4501 31.0676 25.4056 30.6696C25.3938 30.5246 25.3529 30.3835 25.2855 30.2547C25.2181 30.1258 25.1255 30.0117 25.0132 29.9193C24.9009 29.8269 24.7712 29.7579 24.6318 29.7165C24.4924 29.6751 24.346 29.6622 24.2015 29.6784C24.057 29.6946 23.9172 29.7396 23.7903 29.8108C23.6635 29.8821 23.5523 29.978 23.4633 30.093C23.3742 30.208 23.3092 30.3397 23.272 30.4803C23.2348 30.6209 23.2262 30.7676 23.2467 30.9116C23.338 31.7359 23.6968 32.5077 24.2683 33.1087C24.8398 33.7098 25.5925 34.1071 26.4112 34.2398V34.8194C26.4112 35.1076 26.5257 35.384 26.7295 35.5878C26.9333 35.7916 27.2097 35.9061 27.4979 35.9061Z" fill="#FF0000" stroke="#FFEBEB" stroke-width="0.5" mask="url(#path-2-inside-1_478_5009)"/>
</svg>
