<svg width="20" height="20" viewBox="0 0 20 20" fill="none" xmlns="http://www.w3.org/2000/svg">
<circle cx="10" cy="10" r="10" fill="#EEEEEE"/>
<g clip-path="url(#clip0_1293_7338)">
<path d="M11.1234 10.2863L14.6835 6.72611C14.9152 6.49454 14.9152 6.12011 14.6835 5.88853C14.4519 5.65695 14.0775 5.65695 13.8459 5.88853L10.2857 9.44876L6.72558 5.88853C6.4939 5.65695 6.11958 5.65695 5.888 5.88853C5.65631 6.12011 5.65631 6.49454 5.888 6.72611L9.44812 10.2863L5.888 13.8466C5.65631 14.0781 5.65631 14.4526 5.888 14.6842C6.00341 14.7997 6.15515 14.8577 6.30679 14.8577C6.45843 14.8577 6.61007 14.7997 6.72558 14.6842L10.2857 11.1239L13.8459 14.6842C13.9614 14.7997 14.1131 14.8577 14.2647 14.8577C14.4164 14.8577 14.568 14.7997 14.6835 14.6842C14.9152 14.4526 14.9152 14.0781 14.6835 13.8466L11.1234 10.2863Z" fill="#909090"/>
</g>
<defs>
<clipPath id="clip0_1293_7338">
<rect width="10.2857" height="10.2857" fill="white" transform="translate(5.14282 5.14258)"/>
</clipPath>
</defs>
</svg>
