<svg width="20" height="20" viewBox="0 0 20 20" fill="none" xmlns="http://www.w3.org/2000/svg">
<rect x="0.5" y="0.5" width="19" height="19" rx="3.5" stroke="#D9D9D9"/>
<rect width="20" height="20" rx="4" fill="#48A800"/>
<path d="M15.7516 6.19249C15.6037 6.05944 15.4091 5.99058 15.2104 6.00104C15.0118 6.0115 14.8255 6.10043 14.6924 6.24827L8.47133 13.1601L5.28033 9.96907C5.13968 9.82842 4.94891 9.7494 4.75 9.7494C4.55109 9.7494 4.36032 9.82842 4.21967 9.96907C4.07902 10.1097 4 10.3005 4 10.4994C4 10.6983 4.07902 10.8891 4.21967 11.0297L7.96965 14.7797C8.03924 14.8494 8.12189 14.9048 8.21288 14.9426C8.30386 14.9803 8.4014 14.9998 8.49992 14.9999H8.51961C8.62138 14.9972 8.72155 14.9739 8.814 14.9312C8.90646 14.8886 8.98926 14.8276 9.05738 14.7519L15.8073 7.25197C15.8733 7.17876 15.9241 7.09327 15.957 7.00039C15.9899 6.90751 16.0041 6.80906 15.999 6.71067C15.9938 6.61228 15.9693 6.51588 15.9268 6.42697C15.8844 6.33805 15.8248 6.25838 15.7516 6.19249Z" fill="white"/>
</svg>
