<svg width="56" height="56" viewBox="0 0 56 56" fill="none" xmlns="http://www.w3.org/2000/svg">
<rect x="0.5" y="0.5" width="55" height="55" rx="7.5" fill="white" fill-opacity="0.2" stroke="#0544B8"/>
<path d="M28.0001 43.5537C23.8451 43.5537 19.9387 41.9357 17.0007 38.9977C14.0626 36.0596 12.4446 32.1532 12.4446 27.9982C12.4446 23.8431 14.0627 19.9368 17.0007 16.9987C19.9387 14.0606 23.8451 12.4426 28.0001 12.4426C32.1552 12.4426 36.0616 14.0606 38.9996 16.9987C41.9377 19.9368 43.5557 23.8431 43.5557 27.9982C43.5557 32.1532 41.9376 36.0595 38.9996 38.9977C36.0616 41.9358 32.1552 43.5537 28.0001 43.5537ZM28.0001 14.3871C20.4949 14.3871 14.389 20.493 14.389 27.9982C14.389 35.5034 20.4949 41.6093 28.0001 41.6093C35.5053 41.6093 41.6112 35.5034 41.6112 27.9982C41.6112 20.493 35.5053 14.3871 28.0001 14.3871Z" fill="#0544B8"/>
<path d="M28.0002 27.0259C26.66 27.0259 25.5697 25.9355 25.5697 24.5953C25.5697 23.2551 26.66 22.1648 28.0002 22.1648C29.3405 22.1648 30.4308 23.2551 30.4308 24.5953C30.4308 25.1322 30.8661 25.5675 31.403 25.5675C31.94 25.5675 32.3752 25.1322 32.3752 24.5953C32.3752 22.5171 30.9182 20.774 28.9725 20.3305V19.2481C28.9725 18.7112 28.5372 18.2759 28.0002 18.2759C27.4633 18.2759 27.028 18.7112 27.028 19.2481V20.3305C25.0822 20.774 23.6252 22.5171 23.6252 24.5953C23.6252 27.0077 25.5879 28.9703 28.0002 28.9703C29.3405 28.9703 30.4308 30.0607 30.4308 31.4009C30.4308 32.7411 29.3405 33.8314 28.0002 33.8314C26.66 33.8314 25.5697 32.7411 25.5697 31.4009C25.5697 30.864 25.1344 30.4287 24.5975 30.4287C24.0605 30.4287 23.6252 30.864 23.6252 31.4009C23.6252 33.4791 25.0822 35.2222 27.028 35.6657V36.7481C27.028 37.285 27.4633 37.7203 28.0002 37.7203C28.5372 37.7203 28.9725 37.285 28.9725 36.7481V35.6657C30.9182 35.2222 32.3752 33.4791 32.3752 31.4009C32.3752 28.9885 30.4126 27.0259 28.0002 27.0259Z" fill="#0544B8"/>
</svg>
