<svg width="25" height="25" viewBox="0 0 25 25" fill="none" xmlns="http://www.w3.org/2000/svg">
<path fill-rule="evenodd" clip-rule="evenodd" d="M7.26608 12.5C7.26608 12.3525 7.1909 12.1444 7.04978 11.8877C6.90977 11.6331 6.70898 11.3377 6.46679 11.0178C5.98252 10.3783 5.33611 9.64537 4.68875 8.95176C4.04158 8.25835 3.3943 7.60514 2.90875 7.12523C2.66599 6.88529 2.46371 6.68871 2.32213 6.55214C2.25134 6.48385 2.19573 6.43057 2.15783 6.39437L2.11458 6.35314L2.10072 6.33998L2.09985 6.33915C2.08447 6.3246 2.07949 6.30213 2.08736 6.2825C2.09522 6.26287 2.11429 6.25 2.13549 6.25L20.3776 6.25C21.7848 6.25 22.917 7.3785 22.917 8.78099V16.219C22.917 17.6215 21.7848 18.75 20.3776 18.75H2.13549C2.11429 18.75 2.09522 18.7371 2.08736 18.7175C2.07949 18.6979 2.08442 18.6755 2.09979 18.6609L2.10072 18.66L2.11458 18.6469L2.15783 18.6056C2.19573 18.5694 2.25134 18.5161 2.32213 18.4479C2.46371 18.3113 2.66599 18.1147 2.90875 17.8748C3.3943 17.3949 4.04158 16.7416 4.68875 16.0482C5.33611 15.3546 5.98252 14.6217 6.46679 13.9822C6.70898 13.6623 6.90977 13.3669 7.04978 13.1123C7.1909 12.8556 7.26608 12.6475 7.26608 12.5Z" stroke="#FF7F00" stroke-width="1.5" stroke-miterlimit="10" stroke-linejoin="round"/>
</svg>
