<svg width="20" height="20" viewBox="0 0 20 20" fill="none" xmlns="http://www.w3.org/2000/svg">
<g clip-path="url(#clip0_2063_9411)">
<path d="M17.0003 18.3337H16.9837M16.9837 18.3337H3.00033C2.26699 18.3337 1.66699 17.7337 1.66699 17.0003V13.9587C1.66699 13.7503 1.66699 13.642 1.76699 13.442C2.08366 12.7087 3.01699 12.092 4.47533 11.567M16.9837 18.3337C17.717 18.3337 18.317 17.7337 18.317 17.0003V13.9587C18.317 13.7587 18.317 13.542 18.217 13.442C17.9087 12.717 16.967 12.0837 15.5087 11.567M10.0003 11.2503C7.70866 11.2503 5.83366 9.37533 5.83366 7.08366V5.83366C5.83366 3.54199 7.70866 1.66699 10.0003 1.66699C12.292 1.66699 14.167 3.54199 14.167 5.83366V7.08366C14.167 9.37533 12.292 11.2503 10.0003 11.2503Z" stroke="black" stroke-width="1.5" stroke-linecap="round" stroke-linejoin="round"/>
</g>
<defs>
<clipPath id="clip0_2063_9411">
<rect width="20" height="20" fill="white"/>
</clipPath>
</defs>
</svg>
