<svg width="35" height="31" viewBox="0 0 35 31" fill="none" xmlns="http://www.w3.org/2000/svg">
<path d="M28.0519 9.3V6.2H24.9351V3.1H28.0519V0H31.1688V3.1H34.2857V6.2H31.1688V9.3H28.0519ZM3.11688 31C2.25974 31 1.52623 30.6967 0.916364 30.0901C0.305455 29.4825 0 28.7525 0 27.9V9.3C0 8.4475 0.305455 7.71797 0.916364 7.1114C1.52623 6.5038 2.25974 6.2 3.11688 6.2H8.02597L10.9091 3.1H20.2597V6.2H12.2727L9.42857 9.3H3.11688V27.9H28.0519V13.95H31.1688V27.9C31.1688 28.7525 30.8639 29.4825 30.254 30.0901C29.6431 30.6967 28.9091 31 28.0519 31H3.11688ZM15.5844 25.575C17.5325 25.575 19.1886 24.8971 20.5527 23.5414C21.9158 22.1846 22.5974 20.5375 22.5974 18.6C22.5974 16.6625 21.9158 15.0154 20.5527 13.6586C19.1886 12.3029 17.5325 11.625 15.5844 11.625C13.6364 11.625 11.9803 12.3029 10.6161 13.6586C9.25299 15.0154 8.57143 16.6625 8.57143 18.6C8.57143 20.5375 9.25299 22.1846 10.6161 23.5414C11.9803 24.8971 13.6364 25.575 15.5844 25.575ZM15.5844 22.475C14.4935 22.475 13.5714 22.1004 12.8182 21.3512C12.0649 20.6021 11.6883 19.685 11.6883 18.6C11.6883 17.515 12.0649 16.5979 12.8182 15.8488C13.5714 15.0996 14.4935 14.725 15.5844 14.725C16.6753 14.725 17.5974 15.0996 18.3506 15.8488C19.1039 16.5979 19.4805 17.515 19.4805 18.6C19.4805 19.685 19.1039 20.6021 18.3506 21.3512C17.5974 22.1004 16.6753 22.475 15.5844 22.475Z" fill="#B2B2B2"/>
</svg>
