<svg width="17" height="20" viewBox="0 0 17 20" fill="none" xmlns="http://www.w3.org/2000/svg">
<path d="M13.0719 5.92257H12.0664V4.02212C12.0664 2.95539 11.6426 1.93235 10.8883 1.17805C10.134 0.423758 9.11098 0 8.04424 0C6.97751 0 5.95447 0.423758 5.20017 1.17805C4.44588 1.93235 4.02212 2.95539 4.02212 4.02212V5.92257H3.01659C2.21654 5.92257 1.44926 6.24039 0.883539 6.80611C0.317818 7.37183 0 8.13912 0 8.93917V16.9834C0 17.7835 0.317818 18.5507 0.883539 19.1165C1.44926 19.6822 2.21654 20 3.01659 20H13.0719C13.8719 20 14.6392 19.6822 15.2049 19.1165C15.7707 18.5507 16.0885 17.7835 16.0885 16.9834V8.93917C16.0885 8.13912 15.7707 7.37183 15.2049 6.80611C14.6392 6.24039 13.8719 5.92257 13.0719 5.92257ZM6.03318 4.02212C6.01966 3.47441 6.22368 2.94364 6.60059 2.546C6.97749 2.14836 7.49659 1.91624 8.04424 1.90045C8.5919 1.91624 9.11099 2.14836 9.4879 2.546C9.86481 2.94364 10.0688 3.47441 10.0553 4.02212V5.92257H6.03318V4.02212ZM8.04424 15.9779C7.44762 15.9779 6.86439 15.801 6.36832 15.4695C5.87224 15.138 5.48559 14.6669 5.25728 14.1157C5.02896 13.5645 4.96922 12.9579 5.08561 12.3728C5.20201 11.7876 5.48931 11.2501 5.91119 10.8282C6.33307 10.4064 6.87057 10.1191 7.45574 10.0027C8.0409 9.88626 8.64743 9.946 9.19864 10.1743C9.74985 10.4026 10.221 10.7893 10.5524 11.2854C10.8839 11.7814 11.0608 12.3647 11.0608 12.9613C11.0608 13.7613 10.743 14.5286 10.1773 15.0943C9.61157 15.6601 8.84429 15.9779 8.04424 15.9779Z" fill="#F22726"/>
</svg>
