<svg width="16" height="20" viewBox="0 0 16 20" fill="none" xmlns="http://www.w3.org/2000/svg">
<path d="M13 6H6V4C6 3.46957 6.21071 2.96086 6.58579 2.58579C6.96086 2.21071 7.46957 2 8 2C8.53043 2 9.03914 2.21071 9.41421 2.58579C9.78929 2.96086 10 3.46957 10 4C10 4.26522 10.1054 4.51957 10.2929 4.70711C10.4804 4.89464 10.7348 5 11 5C11.2652 5 11.5196 4.89464 11.7071 4.70711C11.8946 4.51957 12 4.26522 12 4C12 2.93913 11.5786 1.92172 10.8284 1.17157C10.0783 0.421427 9.06087 0 8 0C6.93913 0 5.92172 0.421427 5.17157 1.17157C4.42143 1.92172 4 2.93913 4 4V6H3C2.20435 6 1.44129 6.31607 0.87868 6.87868C0.31607 7.44129 0 8.20435 0 9V17C0 17.7956 0.31607 18.5587 0.87868 19.1213C1.44129 19.6839 2.20435 20 3 20H13C13.7956 20 14.5587 19.6839 15.1213 19.1213C15.6839 18.5587 16 17.7956 16 17V9C16 8.20435 15.6839 7.44129 15.1213 6.87868C14.5587 6.31607 13.7956 6 13 6ZM8 16C7.40666 16 6.82664 15.8241 6.33329 15.4944C5.83994 15.1648 5.45542 14.6962 5.22836 14.148C5.0013 13.5999 4.94189 12.9967 5.05764 12.4147C5.1734 11.8328 5.45912 11.2982 5.87868 10.8787C6.29824 10.4591 6.83279 10.1734 7.41473 10.0576C7.99667 9.94189 8.59987 10.0013 9.14805 10.2284C9.69623 10.4554 10.1648 10.8399 10.4944 11.3333C10.8241 11.8266 11 12.4067 11 13C11 13.7956 10.6839 14.5587 10.1213 15.1213C9.55871 15.6839 8.79565 16 8 16Z" fill="#9EA4AD"/>
</svg>
